%TF.GenerationSoftware,KiCad,Pcbnew,7.0.1*%
%TF.CreationDate,2023-04-18T18:49:41-05:00*%
%TF.ProjectId,pcb_design,7063625f-6465-4736-9967-6e2e6b696361,rev?*%
%TF.SameCoordinates,Original*%
%TF.FileFunction,Soldermask,Top*%
%TF.FilePolarity,Negative*%
%FSLAX46Y46*%
G04 Gerber Fmt 4.6, Leading zero omitted, Abs format (unit mm)*
G04 Created by KiCad (PCBNEW 7.0.1) date 2023-04-18 18:49:41*
%MOMM*%
%LPD*%
G01*
G04 APERTURE LIST*
G04 Aperture macros list*
%AMRoundRect*
0 Rectangle with rounded corners*
0 $1 Rounding radius*
0 $2 $3 $4 $5 $6 $7 $8 $9 X,Y pos of 4 corners*
0 Add a 4 corners polygon primitive as box body*
4,1,4,$2,$3,$4,$5,$6,$7,$8,$9,$2,$3,0*
0 Add four circle primitives for the rounded corners*
1,1,$1+$1,$2,$3*
1,1,$1+$1,$4,$5*
1,1,$1+$1,$6,$7*
1,1,$1+$1,$8,$9*
0 Add four rect primitives between the rounded corners*
20,1,$1+$1,$2,$3,$4,$5,0*
20,1,$1+$1,$4,$5,$6,$7,0*
20,1,$1+$1,$6,$7,$8,$9,0*
20,1,$1+$1,$8,$9,$2,$3,0*%
G04 Aperture macros list end*
%ADD10R,2.600000X2.600000*%
%ADD11C,2.600000*%
%ADD12O,1.800000X1.800000*%
%ADD13O,1.500000X1.500000*%
%ADD14O,1.700000X1.700000*%
%ADD15R,3.500000X1.700000*%
%ADD16R,1.700000X1.700000*%
%ADD17R,1.700000X3.500000*%
%ADD18C,1.400000*%
%ADD19RoundRect,0.250000X-0.405000X0.405000X-0.405000X-0.405000X0.405000X-0.405000X0.405000X0.405000X0*%
%ADD20C,1.310000*%
G04 APERTURE END LIST*
D10*
%TO.C,J1*%
X200660000Y-68580000D03*
D11*
X200660000Y-73660000D03*
%TD*%
D12*
%TO.C,U5*%
X156025000Y-66170000D03*
D13*
X156325000Y-69200000D03*
X161175000Y-69200000D03*
D12*
X161475000Y-66170000D03*
D14*
X149860000Y-66040000D03*
D15*
X148960000Y-66040000D03*
D14*
X149860000Y-68580000D03*
D15*
X148960000Y-68580000D03*
D16*
X149860000Y-71120000D03*
D15*
X148960000Y-71120000D03*
D14*
X149860000Y-73660000D03*
D15*
X148960000Y-73660000D03*
D14*
X149860000Y-76200000D03*
D15*
X148960000Y-76200000D03*
D14*
X149860000Y-78740000D03*
D15*
X148960000Y-78740000D03*
D14*
X149860000Y-81280000D03*
D15*
X148960000Y-81280000D03*
D16*
X149860000Y-83820000D03*
D15*
X148960000Y-83820000D03*
D14*
X149860000Y-86360000D03*
D15*
X148960000Y-86360000D03*
D14*
X149860000Y-88900000D03*
D15*
X148960000Y-88900000D03*
D14*
X149860000Y-91440000D03*
D15*
X148960000Y-91440000D03*
D14*
X149860000Y-93980000D03*
D15*
X148960000Y-93980000D03*
D16*
X149860000Y-96520000D03*
D15*
X148960000Y-96520000D03*
D14*
X149860000Y-99060000D03*
D15*
X148960000Y-99060000D03*
D14*
X149860000Y-101600000D03*
D15*
X148960000Y-101600000D03*
D14*
X149860000Y-104140000D03*
D15*
X148960000Y-104140000D03*
D14*
X149860000Y-106680000D03*
D15*
X148960000Y-106680000D03*
D16*
X149860000Y-109220000D03*
D15*
X148960000Y-109220000D03*
D14*
X149860000Y-111760000D03*
D15*
X148960000Y-111760000D03*
D14*
X149860000Y-114300000D03*
D15*
X148960000Y-114300000D03*
D14*
X167640000Y-114300000D03*
D15*
X168540000Y-114300000D03*
D14*
X167640000Y-111760000D03*
D15*
X168540000Y-111760000D03*
D16*
X167640000Y-109220000D03*
D15*
X168540000Y-109220000D03*
D14*
X167640000Y-106680000D03*
D15*
X168540000Y-106680000D03*
D14*
X167640000Y-104140000D03*
D15*
X168540000Y-104140000D03*
D14*
X167640000Y-101600000D03*
D15*
X168540000Y-101600000D03*
D14*
X167640000Y-99060000D03*
D15*
X168540000Y-99060000D03*
D16*
X167640000Y-96520000D03*
D15*
X168540000Y-96520000D03*
D14*
X167640000Y-93980000D03*
D15*
X168540000Y-93980000D03*
D14*
X167640000Y-91440000D03*
D15*
X168540000Y-91440000D03*
D14*
X167640000Y-88900000D03*
D15*
X168540000Y-88900000D03*
D14*
X167640000Y-86360000D03*
D15*
X168540000Y-86360000D03*
D16*
X167640000Y-83820000D03*
D15*
X168540000Y-83820000D03*
D14*
X167640000Y-81280000D03*
D15*
X168540000Y-81280000D03*
D14*
X167640000Y-78740000D03*
D15*
X168540000Y-78740000D03*
D14*
X167640000Y-76200000D03*
D15*
X168540000Y-76200000D03*
D14*
X167640000Y-73660000D03*
D15*
X168540000Y-73660000D03*
D16*
X167640000Y-71120000D03*
D15*
X168540000Y-71120000D03*
D14*
X167640000Y-68580000D03*
D15*
X168540000Y-68580000D03*
D14*
X167640000Y-66040000D03*
D15*
X168540000Y-66040000D03*
D14*
X156210000Y-114070000D03*
D17*
X156210000Y-114970000D03*
D16*
X158750000Y-114070000D03*
D17*
X158750000Y-114970000D03*
D14*
X161290000Y-114070000D03*
D17*
X161290000Y-114970000D03*
%TD*%
D16*
%TO.C,U3*%
X129540000Y-45720000D03*
D14*
X132080000Y-45720000D03*
X134620000Y-45720000D03*
X137160000Y-45720000D03*
X139700000Y-45720000D03*
X142240000Y-45720000D03*
%TD*%
D16*
%TO.C,U4*%
X119380000Y-114300000D03*
D14*
X119380000Y-111760000D03*
X119380000Y-109220000D03*
X119380000Y-106680000D03*
X119380000Y-104140000D03*
X119380000Y-101600000D03*
%TD*%
D16*
%TO.C,U2*%
X160020000Y-45720000D03*
D14*
X162560000Y-45720000D03*
X165100000Y-45720000D03*
X167640000Y-45720000D03*
X170180000Y-45720000D03*
%TD*%
D18*
%TO.C,U1*%
X116840000Y-66040000D03*
X114300000Y-66040000D03*
X116840000Y-68580000D03*
X114300000Y-68580000D03*
X116840000Y-71120000D03*
X114300000Y-71120000D03*
X116840000Y-73660000D03*
X114300000Y-73660000D03*
X116840000Y-76200000D03*
X114300000Y-76200000D03*
D19*
X119380000Y-66040000D03*
D20*
X111760000Y-66040000D03*
X119380000Y-68580000D03*
X111760000Y-68580000D03*
X119380000Y-71120000D03*
X111760000Y-71120000D03*
X119380000Y-73660000D03*
X111760000Y-73660000D03*
X119380000Y-76200000D03*
X111760000Y-76200000D03*
%TD*%
M02*
