%TF.GenerationSoftware,KiCad,Pcbnew,7.0.1*%
%TF.CreationDate,2023-04-18T18:49:40-05:00*%
%TF.ProjectId,pcb_design,7063625f-6465-4736-9967-6e2e6b696361,rev?*%
%TF.SameCoordinates,Original*%
%TF.FileFunction,Legend,Top*%
%TF.FilePolarity,Positive*%
%FSLAX46Y46*%
G04 Gerber Fmt 4.6, Leading zero omitted, Abs format (unit mm)*
G04 Created by KiCad (PCBNEW 7.0.1) date 2023-04-18 18:49:40*
%MOMM*%
%LPD*%
G01*
G04 APERTURE LIST*
%ADD10C,0.150000*%
%ADD11C,0.120000*%
G04 APERTURE END LIST*
D10*
%TO.C,J1*%
X206382619Y-71453333D02*
X207096904Y-71453333D01*
X207096904Y-71453333D02*
X207239761Y-71500952D01*
X207239761Y-71500952D02*
X207335000Y-71596190D01*
X207335000Y-71596190D02*
X207382619Y-71739047D01*
X207382619Y-71739047D02*
X207382619Y-71834285D01*
X207382619Y-70453333D02*
X207382619Y-71024761D01*
X207382619Y-70739047D02*
X206382619Y-70739047D01*
X206382619Y-70739047D02*
X206525476Y-70834285D01*
X206525476Y-70834285D02*
X206620714Y-70929523D01*
X206620714Y-70929523D02*
X206668333Y-71024761D01*
%TO.C,U5*%
X157988095Y-89632619D02*
X157988095Y-90442142D01*
X157988095Y-90442142D02*
X158035714Y-90537380D01*
X158035714Y-90537380D02*
X158083333Y-90585000D01*
X158083333Y-90585000D02*
X158178571Y-90632619D01*
X158178571Y-90632619D02*
X158369047Y-90632619D01*
X158369047Y-90632619D02*
X158464285Y-90585000D01*
X158464285Y-90585000D02*
X158511904Y-90537380D01*
X158511904Y-90537380D02*
X158559523Y-90442142D01*
X158559523Y-90442142D02*
X158559523Y-89632619D01*
X159511904Y-89632619D02*
X159035714Y-89632619D01*
X159035714Y-89632619D02*
X158988095Y-90108809D01*
X158988095Y-90108809D02*
X159035714Y-90061190D01*
X159035714Y-90061190D02*
X159130952Y-90013571D01*
X159130952Y-90013571D02*
X159369047Y-90013571D01*
X159369047Y-90013571D02*
X159464285Y-90061190D01*
X159464285Y-90061190D02*
X159511904Y-90108809D01*
X159511904Y-90108809D02*
X159559523Y-90204047D01*
X159559523Y-90204047D02*
X159559523Y-90442142D01*
X159559523Y-90442142D02*
X159511904Y-90537380D01*
X159511904Y-90537380D02*
X159464285Y-90585000D01*
X159464285Y-90585000D02*
X159369047Y-90632619D01*
X159369047Y-90632619D02*
X159130952Y-90632619D01*
X159130952Y-90632619D02*
X159035714Y-90585000D01*
X159035714Y-90585000D02*
X158988095Y-90537380D01*
X144599513Y-101996384D02*
X144518701Y-102023321D01*
X144518701Y-102023321D02*
X144437889Y-102104133D01*
X144437889Y-102104133D02*
X144384014Y-102211883D01*
X144384014Y-102211883D02*
X144384014Y-102319632D01*
X144384014Y-102319632D02*
X144410951Y-102400445D01*
X144410951Y-102400445D02*
X144491764Y-102535132D01*
X144491764Y-102535132D02*
X144572576Y-102615944D01*
X144572576Y-102615944D02*
X144707263Y-102696756D01*
X144707263Y-102696756D02*
X144788075Y-102723693D01*
X144788075Y-102723693D02*
X144895825Y-102723693D01*
X144895825Y-102723693D02*
X145003574Y-102669819D01*
X145003574Y-102669819D02*
X145057449Y-102615944D01*
X145057449Y-102615944D02*
X145111324Y-102508194D01*
X145111324Y-102508194D02*
X145111324Y-102454319D01*
X145111324Y-102454319D02*
X144922762Y-102265758D01*
X144922762Y-102265758D02*
X144815012Y-102373507D01*
X145407635Y-102265758D02*
X144841950Y-101700072D01*
X144841950Y-101700072D02*
X145057449Y-101484573D01*
X145057449Y-101484573D02*
X145138261Y-101457636D01*
X145138261Y-101457636D02*
X145192136Y-101457636D01*
X145192136Y-101457636D02*
X145272948Y-101484573D01*
X145272948Y-101484573D02*
X145353760Y-101565385D01*
X145353760Y-101565385D02*
X145380698Y-101646197D01*
X145380698Y-101646197D02*
X145380698Y-101700072D01*
X145380698Y-101700072D02*
X145353760Y-101780884D01*
X145353760Y-101780884D02*
X145138261Y-101996384D01*
X146269632Y-101403761D02*
X145946383Y-101727010D01*
X146108008Y-101565385D02*
X145542322Y-100999700D01*
X145542322Y-100999700D02*
X145569260Y-101134387D01*
X145569260Y-101134387D02*
X145569260Y-101242136D01*
X145569260Y-101242136D02*
X145542322Y-101322948D01*
X146808380Y-100865013D02*
X146485131Y-101188261D01*
X146646756Y-101026637D02*
X146081070Y-100460951D01*
X146081070Y-100460951D02*
X146108008Y-100595638D01*
X146108008Y-100595638D02*
X146108008Y-100703388D01*
X146108008Y-100703388D02*
X146081070Y-100784200D01*
X170907389Y-84916755D02*
X171176763Y-84647381D01*
X171015138Y-85132254D02*
X170638015Y-84378007D01*
X170638015Y-84378007D02*
X171392262Y-84755131D01*
X171338387Y-83731510D02*
X171257575Y-83758447D01*
X171257575Y-83758447D02*
X171176762Y-83839259D01*
X171176762Y-83839259D02*
X171122888Y-83947009D01*
X171122888Y-83947009D02*
X171122888Y-84054759D01*
X171122888Y-84054759D02*
X171149825Y-84135571D01*
X171149825Y-84135571D02*
X171230637Y-84270258D01*
X171230637Y-84270258D02*
X171311449Y-84351070D01*
X171311449Y-84351070D02*
X171446136Y-84431882D01*
X171446136Y-84431882D02*
X171526949Y-84458820D01*
X171526949Y-84458820D02*
X171634698Y-84458820D01*
X171634698Y-84458820D02*
X171742448Y-84404945D01*
X171742448Y-84404945D02*
X171796323Y-84351070D01*
X171796323Y-84351070D02*
X171850197Y-84243320D01*
X171850197Y-84243320D02*
X171850197Y-84189446D01*
X171850197Y-84189446D02*
X171661636Y-84000884D01*
X171661636Y-84000884D02*
X171553886Y-84108633D01*
X172146509Y-84000884D02*
X171580823Y-83435198D01*
X171580823Y-83435198D02*
X172469758Y-83677635D01*
X172469758Y-83677635D02*
X171904072Y-83111950D01*
X172739132Y-83408261D02*
X172173446Y-82842576D01*
X172173446Y-82842576D02*
X172308133Y-82707889D01*
X172308133Y-82707889D02*
X172415883Y-82654014D01*
X172415883Y-82654014D02*
X172523632Y-82654014D01*
X172523632Y-82654014D02*
X172604445Y-82680951D01*
X172604445Y-82680951D02*
X172739132Y-82761764D01*
X172739132Y-82761764D02*
X172819944Y-82842576D01*
X172819944Y-82842576D02*
X172900756Y-82977263D01*
X172900756Y-82977263D02*
X172927693Y-83058075D01*
X172927693Y-83058075D02*
X172927693Y-83165825D01*
X172927693Y-83165825D02*
X172873819Y-83273574D01*
X172873819Y-83273574D02*
X172739132Y-83408261D01*
X170841950Y-109373946D02*
X170761138Y-109400884D01*
X170761138Y-109400884D02*
X170680326Y-109481696D01*
X170680326Y-109481696D02*
X170626451Y-109589446D01*
X170626451Y-109589446D02*
X170626451Y-109697195D01*
X170626451Y-109697195D02*
X170653389Y-109778007D01*
X170653389Y-109778007D02*
X170734201Y-109912694D01*
X170734201Y-109912694D02*
X170815013Y-109993507D01*
X170815013Y-109993507D02*
X170949700Y-110074319D01*
X170949700Y-110074319D02*
X171030512Y-110101256D01*
X171030512Y-110101256D02*
X171138262Y-110101256D01*
X171138262Y-110101256D02*
X171246011Y-110047381D01*
X171246011Y-110047381D02*
X171299886Y-109993507D01*
X171299886Y-109993507D02*
X171353761Y-109885757D01*
X171353761Y-109885757D02*
X171353761Y-109831882D01*
X171353761Y-109831882D02*
X171165199Y-109643320D01*
X171165199Y-109643320D02*
X171057450Y-109751070D01*
X171650072Y-109643320D02*
X171084387Y-109077635D01*
X171084387Y-109077635D02*
X171973321Y-109320072D01*
X171973321Y-109320072D02*
X171407636Y-108754386D01*
X172242695Y-109050698D02*
X171677010Y-108485012D01*
X171677010Y-108485012D02*
X171811697Y-108350325D01*
X171811697Y-108350325D02*
X171919446Y-108296450D01*
X171919446Y-108296450D02*
X172027196Y-108296450D01*
X172027196Y-108296450D02*
X172108008Y-108323388D01*
X172108008Y-108323388D02*
X172242695Y-108404200D01*
X172242695Y-108404200D02*
X172323507Y-108485012D01*
X172323507Y-108485012D02*
X172404319Y-108619699D01*
X172404319Y-108619699D02*
X172431257Y-108700511D01*
X172431257Y-108700511D02*
X172431257Y-108808261D01*
X172431257Y-108808261D02*
X172377382Y-108916011D01*
X172377382Y-108916011D02*
X172242695Y-109050698D01*
X170708921Y-66703101D02*
X171463168Y-67080224D01*
X171463168Y-67080224D02*
X171086045Y-66325977D01*
X171732542Y-66218228D02*
X171840292Y-66164353D01*
X171840292Y-66164353D02*
X171894167Y-66164353D01*
X171894167Y-66164353D02*
X171974979Y-66191290D01*
X171974979Y-66191290D02*
X172055791Y-66272103D01*
X172055791Y-66272103D02*
X172082728Y-66352915D01*
X172082728Y-66352915D02*
X172082728Y-66406790D01*
X172082728Y-66406790D02*
X172055791Y-66487602D01*
X172055791Y-66487602D02*
X171840292Y-66703101D01*
X171840292Y-66703101D02*
X171274606Y-66137416D01*
X171274606Y-66137416D02*
X171463168Y-65948854D01*
X171463168Y-65948854D02*
X171543980Y-65921916D01*
X171543980Y-65921916D02*
X171597855Y-65921916D01*
X171597855Y-65921916D02*
X171678667Y-65948854D01*
X171678667Y-65948854D02*
X171732542Y-66002729D01*
X171732542Y-66002729D02*
X171759480Y-66083541D01*
X171759480Y-66083541D02*
X171759480Y-66137416D01*
X171759480Y-66137416D02*
X171732542Y-66218228D01*
X171732542Y-66218228D02*
X171543980Y-66406790D01*
X171840292Y-65571730D02*
X172298228Y-66029666D01*
X172298228Y-66029666D02*
X172379040Y-66056603D01*
X172379040Y-66056603D02*
X172432915Y-66056603D01*
X172432915Y-66056603D02*
X172513727Y-66029666D01*
X172513727Y-66029666D02*
X172621476Y-65921916D01*
X172621476Y-65921916D02*
X172648414Y-65841104D01*
X172648414Y-65841104D02*
X172648414Y-65787229D01*
X172648414Y-65787229D02*
X172621476Y-65706417D01*
X172621476Y-65706417D02*
X172163541Y-65248481D01*
X172944725Y-65544793D02*
X173052475Y-65490918D01*
X173052475Y-65490918D02*
X173187162Y-65356231D01*
X173187162Y-65356231D02*
X173214099Y-65275419D01*
X173214099Y-65275419D02*
X173214099Y-65221544D01*
X173214099Y-65221544D02*
X173187162Y-65140732D01*
X173187162Y-65140732D02*
X173133287Y-65086857D01*
X173133287Y-65086857D02*
X173052475Y-65059920D01*
X173052475Y-65059920D02*
X172998600Y-65059920D01*
X172998600Y-65059920D02*
X172917788Y-65086857D01*
X172917788Y-65086857D02*
X172783101Y-65167669D01*
X172783101Y-65167669D02*
X172702288Y-65194607D01*
X172702288Y-65194607D02*
X172648414Y-65194607D01*
X172648414Y-65194607D02*
X172567601Y-65167669D01*
X172567601Y-65167669D02*
X172513727Y-65113794D01*
X172513727Y-65113794D02*
X172486789Y-65032982D01*
X172486789Y-65032982D02*
X172486789Y-64979107D01*
X172486789Y-64979107D02*
X172513727Y-64898295D01*
X172513727Y-64898295D02*
X172648414Y-64763608D01*
X172648414Y-64763608D02*
X172756163Y-64709733D01*
X170841950Y-71273946D02*
X170761138Y-71300884D01*
X170761138Y-71300884D02*
X170680326Y-71381696D01*
X170680326Y-71381696D02*
X170626451Y-71489446D01*
X170626451Y-71489446D02*
X170626451Y-71597195D01*
X170626451Y-71597195D02*
X170653389Y-71678007D01*
X170653389Y-71678007D02*
X170734201Y-71812694D01*
X170734201Y-71812694D02*
X170815013Y-71893507D01*
X170815013Y-71893507D02*
X170949700Y-71974319D01*
X170949700Y-71974319D02*
X171030512Y-72001256D01*
X171030512Y-72001256D02*
X171138262Y-72001256D01*
X171138262Y-72001256D02*
X171246011Y-71947381D01*
X171246011Y-71947381D02*
X171299886Y-71893507D01*
X171299886Y-71893507D02*
X171353761Y-71785757D01*
X171353761Y-71785757D02*
X171353761Y-71731882D01*
X171353761Y-71731882D02*
X171165199Y-71543320D01*
X171165199Y-71543320D02*
X171057450Y-71651070D01*
X171650072Y-71543320D02*
X171084387Y-70977635D01*
X171084387Y-70977635D02*
X171973321Y-71220072D01*
X171973321Y-71220072D02*
X171407636Y-70654386D01*
X172242695Y-70950698D02*
X171677010Y-70385012D01*
X171677010Y-70385012D02*
X171811697Y-70250325D01*
X171811697Y-70250325D02*
X171919446Y-70196450D01*
X171919446Y-70196450D02*
X172027196Y-70196450D01*
X172027196Y-70196450D02*
X172108008Y-70223388D01*
X172108008Y-70223388D02*
X172242695Y-70304200D01*
X172242695Y-70304200D02*
X172323507Y-70385012D01*
X172323507Y-70385012D02*
X172404319Y-70519699D01*
X172404319Y-70519699D02*
X172431257Y-70600511D01*
X172431257Y-70600511D02*
X172431257Y-70708261D01*
X172431257Y-70708261D02*
X172377382Y-70816011D01*
X172377382Y-70816011D02*
X172242695Y-70950698D01*
X144745513Y-107076384D02*
X144664701Y-107103321D01*
X144664701Y-107103321D02*
X144583889Y-107184133D01*
X144583889Y-107184133D02*
X144530014Y-107291883D01*
X144530014Y-107291883D02*
X144530014Y-107399632D01*
X144530014Y-107399632D02*
X144556951Y-107480445D01*
X144556951Y-107480445D02*
X144637764Y-107615132D01*
X144637764Y-107615132D02*
X144718576Y-107695944D01*
X144718576Y-107695944D02*
X144853263Y-107776756D01*
X144853263Y-107776756D02*
X144934075Y-107803693D01*
X144934075Y-107803693D02*
X145041825Y-107803693D01*
X145041825Y-107803693D02*
X145149574Y-107749819D01*
X145149574Y-107749819D02*
X145203449Y-107695944D01*
X145203449Y-107695944D02*
X145257324Y-107588194D01*
X145257324Y-107588194D02*
X145257324Y-107534319D01*
X145257324Y-107534319D02*
X145068762Y-107345758D01*
X145068762Y-107345758D02*
X144961012Y-107453507D01*
X145553635Y-107345758D02*
X144987950Y-106780072D01*
X144987950Y-106780072D02*
X145203449Y-106564573D01*
X145203449Y-106564573D02*
X145284261Y-106537636D01*
X145284261Y-106537636D02*
X145338136Y-106537636D01*
X145338136Y-106537636D02*
X145418948Y-106564573D01*
X145418948Y-106564573D02*
X145499760Y-106645385D01*
X145499760Y-106645385D02*
X145526698Y-106726197D01*
X145526698Y-106726197D02*
X145526698Y-106780072D01*
X145526698Y-106780072D02*
X145499760Y-106860884D01*
X145499760Y-106860884D02*
X145284261Y-107076384D01*
X146415632Y-106483761D02*
X146092383Y-106807010D01*
X146254008Y-106645385D02*
X145688322Y-106079700D01*
X145688322Y-106079700D02*
X145715260Y-106214387D01*
X145715260Y-106214387D02*
X145715260Y-106322136D01*
X145715260Y-106322136D02*
X145688322Y-106402948D01*
X146038509Y-105729513D02*
X146388695Y-105379327D01*
X146388695Y-105379327D02*
X146415632Y-105783388D01*
X146415632Y-105783388D02*
X146496444Y-105702576D01*
X146496444Y-105702576D02*
X146577257Y-105675638D01*
X146577257Y-105675638D02*
X146631131Y-105675638D01*
X146631131Y-105675638D02*
X146711944Y-105702576D01*
X146711944Y-105702576D02*
X146846631Y-105837263D01*
X146846631Y-105837263D02*
X146873568Y-105918075D01*
X146873568Y-105918075D02*
X146873568Y-105971950D01*
X146873568Y-105971950D02*
X146846631Y-106052762D01*
X146846631Y-106052762D02*
X146685006Y-106214387D01*
X146685006Y-106214387D02*
X146604194Y-106241324D01*
X146604194Y-106241324D02*
X146550319Y-106241324D01*
X170910579Y-79709565D02*
X171179953Y-79440191D01*
X171018329Y-79925064D02*
X170641205Y-79170817D01*
X170641205Y-79170817D02*
X171395452Y-79547940D01*
X171584014Y-79359379D02*
X171018329Y-78793693D01*
X171018329Y-78793693D02*
X171153016Y-78659006D01*
X171153016Y-78659006D02*
X171260765Y-78605132D01*
X171260765Y-78605132D02*
X171368515Y-78605132D01*
X171368515Y-78605132D02*
X171449327Y-78632069D01*
X171449327Y-78632069D02*
X171584014Y-78712881D01*
X171584014Y-78712881D02*
X171664826Y-78793693D01*
X171664826Y-78793693D02*
X171745638Y-78928380D01*
X171745638Y-78928380D02*
X171772576Y-79009193D01*
X171772576Y-79009193D02*
X171772576Y-79116942D01*
X171772576Y-79116942D02*
X171718701Y-79224692D01*
X171718701Y-79224692D02*
X171584014Y-79359379D01*
X172419073Y-78416570D02*
X172419073Y-78470445D01*
X172419073Y-78470445D02*
X172365199Y-78578194D01*
X172365199Y-78578194D02*
X172311324Y-78632069D01*
X172311324Y-78632069D02*
X172203574Y-78685944D01*
X172203574Y-78685944D02*
X172095825Y-78685944D01*
X172095825Y-78685944D02*
X172015012Y-78659006D01*
X172015012Y-78659006D02*
X171880325Y-78578194D01*
X171880325Y-78578194D02*
X171799513Y-78497382D01*
X171799513Y-78497382D02*
X171718701Y-78362695D01*
X171718701Y-78362695D02*
X171691764Y-78281883D01*
X171691764Y-78281883D02*
X171691764Y-78174133D01*
X171691764Y-78174133D02*
X171745638Y-78066383D01*
X171745638Y-78066383D02*
X171799513Y-78012509D01*
X171799513Y-78012509D02*
X171907263Y-77958634D01*
X171907263Y-77958634D02*
X171961138Y-77958634D01*
X172634573Y-78416570D02*
X173065571Y-77985571D01*
X172499886Y-77312136D02*
X173254133Y-77689260D01*
X173254133Y-77689260D02*
X172877009Y-76935013D01*
X173954505Y-76988888D02*
X173496569Y-76908075D01*
X173631256Y-77312136D02*
X173065571Y-76746451D01*
X173065571Y-76746451D02*
X173281070Y-76530952D01*
X173281070Y-76530952D02*
X173361882Y-76504014D01*
X173361882Y-76504014D02*
X173415757Y-76504014D01*
X173415757Y-76504014D02*
X173496569Y-76530952D01*
X173496569Y-76530952D02*
X173577382Y-76611764D01*
X173577382Y-76611764D02*
X173604319Y-76692576D01*
X173604319Y-76692576D02*
X173604319Y-76746451D01*
X173604319Y-76746451D02*
X173577382Y-76827263D01*
X173577382Y-76827263D02*
X173361882Y-77042762D01*
X173900630Y-76450139D02*
X174089192Y-76261578D01*
X174466316Y-76477077D02*
X174196942Y-76746451D01*
X174196942Y-76746451D02*
X173631256Y-76180765D01*
X173631256Y-76180765D02*
X173900630Y-75911391D01*
X174601003Y-75749767D02*
X174412441Y-75938329D01*
X174708753Y-76234640D02*
X174143067Y-75668955D01*
X174143067Y-75668955D02*
X174412441Y-75399581D01*
X145268888Y-78867009D02*
X145188075Y-78893946D01*
X145188075Y-78893946D02*
X145107263Y-78974759D01*
X145107263Y-78974759D02*
X145053388Y-79082508D01*
X145053388Y-79082508D02*
X145053388Y-79190258D01*
X145053388Y-79190258D02*
X145080326Y-79271070D01*
X145080326Y-79271070D02*
X145161138Y-79405757D01*
X145161138Y-79405757D02*
X145241950Y-79486569D01*
X145241950Y-79486569D02*
X145376637Y-79567382D01*
X145376637Y-79567382D02*
X145457449Y-79594319D01*
X145457449Y-79594319D02*
X145565199Y-79594319D01*
X145565199Y-79594319D02*
X145672949Y-79540444D01*
X145672949Y-79540444D02*
X145726823Y-79486569D01*
X145726823Y-79486569D02*
X145780698Y-79378820D01*
X145780698Y-79378820D02*
X145780698Y-79324945D01*
X145780698Y-79324945D02*
X145592136Y-79136383D01*
X145592136Y-79136383D02*
X145484387Y-79244133D01*
X146077010Y-79136383D02*
X145511324Y-78570698D01*
X145511324Y-78570698D02*
X145726823Y-78355198D01*
X145726823Y-78355198D02*
X145807636Y-78328261D01*
X145807636Y-78328261D02*
X145861510Y-78328261D01*
X145861510Y-78328261D02*
X145942323Y-78355198D01*
X145942323Y-78355198D02*
X146023135Y-78436011D01*
X146023135Y-78436011D02*
X146050072Y-78516823D01*
X146050072Y-78516823D02*
X146050072Y-78570698D01*
X146050072Y-78570698D02*
X146023135Y-78651510D01*
X146023135Y-78651510D02*
X145807636Y-78867009D01*
X146508008Y-77951137D02*
X146885132Y-78328261D01*
X146157822Y-77870325D02*
X146427196Y-78409073D01*
X146427196Y-78409073D02*
X146777382Y-78058887D01*
X145368888Y-88997009D02*
X145288075Y-89023946D01*
X145288075Y-89023946D02*
X145207263Y-89104759D01*
X145207263Y-89104759D02*
X145153388Y-89212508D01*
X145153388Y-89212508D02*
X145153388Y-89320258D01*
X145153388Y-89320258D02*
X145180326Y-89401070D01*
X145180326Y-89401070D02*
X145261138Y-89535757D01*
X145261138Y-89535757D02*
X145341950Y-89616569D01*
X145341950Y-89616569D02*
X145476637Y-89697382D01*
X145476637Y-89697382D02*
X145557449Y-89724319D01*
X145557449Y-89724319D02*
X145665199Y-89724319D01*
X145665199Y-89724319D02*
X145772949Y-89670444D01*
X145772949Y-89670444D02*
X145826823Y-89616569D01*
X145826823Y-89616569D02*
X145880698Y-89508820D01*
X145880698Y-89508820D02*
X145880698Y-89454945D01*
X145880698Y-89454945D02*
X145692136Y-89266383D01*
X145692136Y-89266383D02*
X145584387Y-89374133D01*
X146177010Y-89266383D02*
X145611324Y-88700698D01*
X145611324Y-88700698D02*
X145826823Y-88485198D01*
X145826823Y-88485198D02*
X145907636Y-88458261D01*
X145907636Y-88458261D02*
X145961510Y-88458261D01*
X145961510Y-88458261D02*
X146042323Y-88485198D01*
X146042323Y-88485198D02*
X146123135Y-88566011D01*
X146123135Y-88566011D02*
X146150072Y-88646823D01*
X146150072Y-88646823D02*
X146150072Y-88700698D01*
X146150072Y-88700698D02*
X146123135Y-88781510D01*
X146123135Y-88781510D02*
X145907636Y-88997009D01*
X146123135Y-88188887D02*
X146500258Y-87811763D01*
X146500258Y-87811763D02*
X146823507Y-88619885D01*
X144745513Y-114696384D02*
X144664701Y-114723321D01*
X144664701Y-114723321D02*
X144583889Y-114804133D01*
X144583889Y-114804133D02*
X144530014Y-114911883D01*
X144530014Y-114911883D02*
X144530014Y-115019632D01*
X144530014Y-115019632D02*
X144556951Y-115100445D01*
X144556951Y-115100445D02*
X144637764Y-115235132D01*
X144637764Y-115235132D02*
X144718576Y-115315944D01*
X144718576Y-115315944D02*
X144853263Y-115396756D01*
X144853263Y-115396756D02*
X144934075Y-115423693D01*
X144934075Y-115423693D02*
X145041825Y-115423693D01*
X145041825Y-115423693D02*
X145149574Y-115369819D01*
X145149574Y-115369819D02*
X145203449Y-115315944D01*
X145203449Y-115315944D02*
X145257324Y-115208194D01*
X145257324Y-115208194D02*
X145257324Y-115154319D01*
X145257324Y-115154319D02*
X145068762Y-114965758D01*
X145068762Y-114965758D02*
X144961012Y-115073507D01*
X145553635Y-114965758D02*
X144987950Y-114400072D01*
X144987950Y-114400072D02*
X145203449Y-114184573D01*
X145203449Y-114184573D02*
X145284261Y-114157636D01*
X145284261Y-114157636D02*
X145338136Y-114157636D01*
X145338136Y-114157636D02*
X145418948Y-114184573D01*
X145418948Y-114184573D02*
X145499760Y-114265385D01*
X145499760Y-114265385D02*
X145526698Y-114346197D01*
X145526698Y-114346197D02*
X145526698Y-114400072D01*
X145526698Y-114400072D02*
X145499760Y-114480884D01*
X145499760Y-114480884D02*
X145284261Y-114696384D01*
X146415632Y-114103761D02*
X146092383Y-114427010D01*
X146254008Y-114265385D02*
X145688322Y-113699700D01*
X145688322Y-113699700D02*
X145715260Y-113834387D01*
X145715260Y-113834387D02*
X145715260Y-113942136D01*
X145715260Y-113942136D02*
X145688322Y-114022948D01*
X146361757Y-113026264D02*
X146092383Y-113295638D01*
X146092383Y-113295638D02*
X146334820Y-113591950D01*
X146334820Y-113591950D02*
X146334820Y-113538075D01*
X146334820Y-113538075D02*
X146361757Y-113457263D01*
X146361757Y-113457263D02*
X146496444Y-113322576D01*
X146496444Y-113322576D02*
X146577257Y-113295638D01*
X146577257Y-113295638D02*
X146631131Y-113295638D01*
X146631131Y-113295638D02*
X146711944Y-113322576D01*
X146711944Y-113322576D02*
X146846631Y-113457263D01*
X146846631Y-113457263D02*
X146873568Y-113538075D01*
X146873568Y-113538075D02*
X146873568Y-113591950D01*
X146873568Y-113591950D02*
X146846631Y-113672762D01*
X146846631Y-113672762D02*
X146711944Y-113807449D01*
X146711944Y-113807449D02*
X146631131Y-113834387D01*
X146631131Y-113834387D02*
X146577257Y-113834387D01*
X170853513Y-112156384D02*
X170772701Y-112183321D01*
X170772701Y-112183321D02*
X170691889Y-112264133D01*
X170691889Y-112264133D02*
X170638014Y-112371883D01*
X170638014Y-112371883D02*
X170638014Y-112479632D01*
X170638014Y-112479632D02*
X170664951Y-112560445D01*
X170664951Y-112560445D02*
X170745764Y-112695132D01*
X170745764Y-112695132D02*
X170826576Y-112775944D01*
X170826576Y-112775944D02*
X170961263Y-112856756D01*
X170961263Y-112856756D02*
X171042075Y-112883693D01*
X171042075Y-112883693D02*
X171149825Y-112883693D01*
X171149825Y-112883693D02*
X171257574Y-112829819D01*
X171257574Y-112829819D02*
X171311449Y-112775944D01*
X171311449Y-112775944D02*
X171365324Y-112668194D01*
X171365324Y-112668194D02*
X171365324Y-112614319D01*
X171365324Y-112614319D02*
X171176762Y-112425758D01*
X171176762Y-112425758D02*
X171069012Y-112533507D01*
X171661635Y-112425758D02*
X171095950Y-111860072D01*
X171095950Y-111860072D02*
X171311449Y-111644573D01*
X171311449Y-111644573D02*
X171392261Y-111617636D01*
X171392261Y-111617636D02*
X171446136Y-111617636D01*
X171446136Y-111617636D02*
X171526948Y-111644573D01*
X171526948Y-111644573D02*
X171607760Y-111725385D01*
X171607760Y-111725385D02*
X171634698Y-111806197D01*
X171634698Y-111806197D02*
X171634698Y-111860072D01*
X171634698Y-111860072D02*
X171607760Y-111940884D01*
X171607760Y-111940884D02*
X171392261Y-112156384D01*
X172523632Y-111563761D02*
X172200383Y-111887010D01*
X172362008Y-111725385D02*
X171796322Y-111159700D01*
X171796322Y-111159700D02*
X171823260Y-111294387D01*
X171823260Y-111294387D02*
X171823260Y-111402136D01*
X171823260Y-111402136D02*
X171796322Y-111482948D01*
X172146509Y-110809513D02*
X172523632Y-110432390D01*
X172523632Y-110432390D02*
X172846881Y-111240512D01*
X170853513Y-89296384D02*
X170772701Y-89323321D01*
X170772701Y-89323321D02*
X170691889Y-89404133D01*
X170691889Y-89404133D02*
X170638014Y-89511883D01*
X170638014Y-89511883D02*
X170638014Y-89619632D01*
X170638014Y-89619632D02*
X170664951Y-89700445D01*
X170664951Y-89700445D02*
X170745764Y-89835132D01*
X170745764Y-89835132D02*
X170826576Y-89915944D01*
X170826576Y-89915944D02*
X170961263Y-89996756D01*
X170961263Y-89996756D02*
X171042075Y-90023693D01*
X171042075Y-90023693D02*
X171149825Y-90023693D01*
X171149825Y-90023693D02*
X171257574Y-89969819D01*
X171257574Y-89969819D02*
X171311449Y-89915944D01*
X171311449Y-89915944D02*
X171365324Y-89808194D01*
X171365324Y-89808194D02*
X171365324Y-89754319D01*
X171365324Y-89754319D02*
X171176762Y-89565758D01*
X171176762Y-89565758D02*
X171069012Y-89673507D01*
X171661635Y-89565758D02*
X171095950Y-89000072D01*
X171095950Y-89000072D02*
X171311449Y-88784573D01*
X171311449Y-88784573D02*
X171392261Y-88757636D01*
X171392261Y-88757636D02*
X171446136Y-88757636D01*
X171446136Y-88757636D02*
X171526948Y-88784573D01*
X171526948Y-88784573D02*
X171607760Y-88865385D01*
X171607760Y-88865385D02*
X171634698Y-88946197D01*
X171634698Y-88946197D02*
X171634698Y-89000072D01*
X171634698Y-89000072D02*
X171607760Y-89080884D01*
X171607760Y-89080884D02*
X171392261Y-89296384D01*
X171688573Y-88515199D02*
X171688573Y-88461324D01*
X171688573Y-88461324D02*
X171715510Y-88380512D01*
X171715510Y-88380512D02*
X171850197Y-88245825D01*
X171850197Y-88245825D02*
X171931009Y-88218887D01*
X171931009Y-88218887D02*
X171984884Y-88218887D01*
X171984884Y-88218887D02*
X172065696Y-88245825D01*
X172065696Y-88245825D02*
X172119571Y-88299700D01*
X172119571Y-88299700D02*
X172173446Y-88407449D01*
X172173446Y-88407449D02*
X172173446Y-89053947D01*
X172173446Y-89053947D02*
X172523632Y-88703761D01*
X172442820Y-87653202D02*
X172335070Y-87760951D01*
X172335070Y-87760951D02*
X172308133Y-87841764D01*
X172308133Y-87841764D02*
X172308133Y-87895638D01*
X172308133Y-87895638D02*
X172335070Y-88030326D01*
X172335070Y-88030326D02*
X172415883Y-88165013D01*
X172415883Y-88165013D02*
X172631382Y-88380512D01*
X172631382Y-88380512D02*
X172712194Y-88407449D01*
X172712194Y-88407449D02*
X172766069Y-88407449D01*
X172766069Y-88407449D02*
X172846881Y-88380512D01*
X172846881Y-88380512D02*
X172954631Y-88272762D01*
X172954631Y-88272762D02*
X172981568Y-88191950D01*
X172981568Y-88191950D02*
X172981568Y-88138075D01*
X172981568Y-88138075D02*
X172954631Y-88057263D01*
X172954631Y-88057263D02*
X172819944Y-87922576D01*
X172819944Y-87922576D02*
X172739131Y-87895638D01*
X172739131Y-87895638D02*
X172685257Y-87895638D01*
X172685257Y-87895638D02*
X172604444Y-87922576D01*
X172604444Y-87922576D02*
X172496695Y-88030326D01*
X172496695Y-88030326D02*
X172469757Y-88111138D01*
X172469757Y-88111138D02*
X172469757Y-88165013D01*
X172469757Y-88165013D02*
X172496695Y-88245825D01*
X151240475Y-116702000D02*
X151354761Y-116740095D01*
X151354761Y-116740095D02*
X151545237Y-116740095D01*
X151545237Y-116740095D02*
X151621428Y-116702000D01*
X151621428Y-116702000D02*
X151659523Y-116663904D01*
X151659523Y-116663904D02*
X151697618Y-116587714D01*
X151697618Y-116587714D02*
X151697618Y-116511523D01*
X151697618Y-116511523D02*
X151659523Y-116435333D01*
X151659523Y-116435333D02*
X151621428Y-116397238D01*
X151621428Y-116397238D02*
X151545237Y-116359142D01*
X151545237Y-116359142D02*
X151392856Y-116321047D01*
X151392856Y-116321047D02*
X151316666Y-116282952D01*
X151316666Y-116282952D02*
X151278571Y-116244857D01*
X151278571Y-116244857D02*
X151240475Y-116168666D01*
X151240475Y-116168666D02*
X151240475Y-116092476D01*
X151240475Y-116092476D02*
X151278571Y-116016285D01*
X151278571Y-116016285D02*
X151316666Y-115978190D01*
X151316666Y-115978190D02*
X151392856Y-115940095D01*
X151392856Y-115940095D02*
X151583333Y-115940095D01*
X151583333Y-115940095D02*
X151697618Y-115978190D01*
X151964285Y-115940095D02*
X152154761Y-116740095D01*
X152154761Y-116740095D02*
X152307142Y-116168666D01*
X152307142Y-116168666D02*
X152459523Y-116740095D01*
X152459523Y-116740095D02*
X152650000Y-115940095D01*
X153411905Y-116663904D02*
X153373809Y-116702000D01*
X153373809Y-116702000D02*
X153259524Y-116740095D01*
X153259524Y-116740095D02*
X153183333Y-116740095D01*
X153183333Y-116740095D02*
X153069047Y-116702000D01*
X153069047Y-116702000D02*
X152992857Y-116625809D01*
X152992857Y-116625809D02*
X152954762Y-116549619D01*
X152954762Y-116549619D02*
X152916666Y-116397238D01*
X152916666Y-116397238D02*
X152916666Y-116282952D01*
X152916666Y-116282952D02*
X152954762Y-116130571D01*
X152954762Y-116130571D02*
X152992857Y-116054380D01*
X152992857Y-116054380D02*
X153069047Y-115978190D01*
X153069047Y-115978190D02*
X153183333Y-115940095D01*
X153183333Y-115940095D02*
X153259524Y-115940095D01*
X153259524Y-115940095D02*
X153373809Y-115978190D01*
X153373809Y-115978190D02*
X153411905Y-116016285D01*
X154135714Y-116740095D02*
X153754762Y-116740095D01*
X153754762Y-116740095D02*
X153754762Y-115940095D01*
X154402381Y-116740095D02*
X154402381Y-115940095D01*
X154859524Y-116740095D02*
X154516666Y-116282952D01*
X154859524Y-115940095D02*
X154402381Y-116397238D01*
X170677923Y-74134099D02*
X171028109Y-73783913D01*
X171028109Y-73783913D02*
X171055046Y-74187974D01*
X171055046Y-74187974D02*
X171135859Y-74107162D01*
X171135859Y-74107162D02*
X171216671Y-74080224D01*
X171216671Y-74080224D02*
X171270546Y-74080224D01*
X171270546Y-74080224D02*
X171351358Y-74107162D01*
X171351358Y-74107162D02*
X171486045Y-74241849D01*
X171486045Y-74241849D02*
X171512982Y-74322661D01*
X171512982Y-74322661D02*
X171512982Y-74376536D01*
X171512982Y-74376536D02*
X171486045Y-74457348D01*
X171486045Y-74457348D02*
X171324420Y-74618972D01*
X171324420Y-74618972D02*
X171243608Y-74645910D01*
X171243608Y-74645910D02*
X171189733Y-74645910D01*
X171189733Y-73622288D02*
X171943981Y-73999412D01*
X171943981Y-73999412D02*
X171566857Y-73245165D01*
X171701544Y-73110478D02*
X172051730Y-72760292D01*
X172051730Y-72760292D02*
X172078668Y-73164353D01*
X172078668Y-73164353D02*
X172159480Y-73083541D01*
X172159480Y-73083541D02*
X172240292Y-73056603D01*
X172240292Y-73056603D02*
X172294167Y-73056603D01*
X172294167Y-73056603D02*
X172374979Y-73083541D01*
X172374979Y-73083541D02*
X172509666Y-73218228D01*
X172509666Y-73218228D02*
X172536603Y-73299040D01*
X172536603Y-73299040D02*
X172536603Y-73352915D01*
X172536603Y-73352915D02*
X172509666Y-73433727D01*
X172509666Y-73433727D02*
X172348042Y-73595351D01*
X172348042Y-73595351D02*
X172267229Y-73622289D01*
X172267229Y-73622289D02*
X172213355Y-73622289D01*
X172779040Y-73272102D02*
X173210039Y-72841104D01*
X172994539Y-72356230D02*
X173183101Y-72167669D01*
X173560225Y-72383168D02*
X173290851Y-72652542D01*
X173290851Y-72652542D02*
X172725165Y-72086856D01*
X172725165Y-72086856D02*
X172994539Y-71817482D01*
X173802662Y-72140731D02*
X173236976Y-71575045D01*
X173236976Y-71575045D02*
X174125911Y-71817482D01*
X174125911Y-71817482D02*
X173560225Y-71251797D01*
X170645638Y-76666383D02*
X170995825Y-76316197D01*
X170995825Y-76316197D02*
X171022762Y-76720258D01*
X171022762Y-76720258D02*
X171103574Y-76639446D01*
X171103574Y-76639446D02*
X171184386Y-76612509D01*
X171184386Y-76612509D02*
X171238261Y-76612509D01*
X171238261Y-76612509D02*
X171319073Y-76639446D01*
X171319073Y-76639446D02*
X171453760Y-76774133D01*
X171453760Y-76774133D02*
X171480698Y-76854945D01*
X171480698Y-76854945D02*
X171480698Y-76908820D01*
X171480698Y-76908820D02*
X171453760Y-76989632D01*
X171453760Y-76989632D02*
X171292136Y-77151257D01*
X171292136Y-77151257D02*
X171211324Y-77178194D01*
X171211324Y-77178194D02*
X171157449Y-77178194D01*
X171157449Y-76154573D02*
X171911696Y-76531696D01*
X171911696Y-76531696D02*
X171534573Y-75777449D01*
X171669260Y-75642762D02*
X172019446Y-75292576D01*
X172019446Y-75292576D02*
X172046383Y-75696637D01*
X172046383Y-75696637D02*
X172127195Y-75615825D01*
X172127195Y-75615825D02*
X172208008Y-75588887D01*
X172208008Y-75588887D02*
X172261882Y-75588887D01*
X172261882Y-75588887D02*
X172342695Y-75615825D01*
X172342695Y-75615825D02*
X172477382Y-75750512D01*
X172477382Y-75750512D02*
X172504319Y-75831324D01*
X172504319Y-75831324D02*
X172504319Y-75885199D01*
X172504319Y-75885199D02*
X172477382Y-75966011D01*
X172477382Y-75966011D02*
X172315757Y-76127635D01*
X172315757Y-76127635D02*
X172234945Y-76154573D01*
X172234945Y-76154573D02*
X172181070Y-76154573D01*
X145268888Y-91567009D02*
X145188075Y-91593946D01*
X145188075Y-91593946D02*
X145107263Y-91674759D01*
X145107263Y-91674759D02*
X145053388Y-91782508D01*
X145053388Y-91782508D02*
X145053388Y-91890258D01*
X145053388Y-91890258D02*
X145080326Y-91971070D01*
X145080326Y-91971070D02*
X145161138Y-92105757D01*
X145161138Y-92105757D02*
X145241950Y-92186569D01*
X145241950Y-92186569D02*
X145376637Y-92267382D01*
X145376637Y-92267382D02*
X145457449Y-92294319D01*
X145457449Y-92294319D02*
X145565199Y-92294319D01*
X145565199Y-92294319D02*
X145672949Y-92240444D01*
X145672949Y-92240444D02*
X145726823Y-92186569D01*
X145726823Y-92186569D02*
X145780698Y-92078820D01*
X145780698Y-92078820D02*
X145780698Y-92024945D01*
X145780698Y-92024945D02*
X145592136Y-91836383D01*
X145592136Y-91836383D02*
X145484387Y-91944133D01*
X146077010Y-91836383D02*
X145511324Y-91270698D01*
X145511324Y-91270698D02*
X145726823Y-91055198D01*
X145726823Y-91055198D02*
X145807636Y-91028261D01*
X145807636Y-91028261D02*
X145861510Y-91028261D01*
X145861510Y-91028261D02*
X145942323Y-91055198D01*
X145942323Y-91055198D02*
X146023135Y-91136011D01*
X146023135Y-91136011D02*
X146050072Y-91216823D01*
X146050072Y-91216823D02*
X146050072Y-91270698D01*
X146050072Y-91270698D02*
X146023135Y-91351510D01*
X146023135Y-91351510D02*
X145807636Y-91567009D01*
X146400258Y-90866637D02*
X146319446Y-90893574D01*
X146319446Y-90893574D02*
X146265571Y-90893574D01*
X146265571Y-90893574D02*
X146184759Y-90866637D01*
X146184759Y-90866637D02*
X146157822Y-90839699D01*
X146157822Y-90839699D02*
X146130884Y-90758887D01*
X146130884Y-90758887D02*
X146130884Y-90705012D01*
X146130884Y-90705012D02*
X146157822Y-90624200D01*
X146157822Y-90624200D02*
X146265571Y-90516450D01*
X146265571Y-90516450D02*
X146346384Y-90489513D01*
X146346384Y-90489513D02*
X146400258Y-90489513D01*
X146400258Y-90489513D02*
X146481071Y-90516450D01*
X146481071Y-90516450D02*
X146508008Y-90543388D01*
X146508008Y-90543388D02*
X146534945Y-90624200D01*
X146534945Y-90624200D02*
X146534945Y-90678075D01*
X146534945Y-90678075D02*
X146508008Y-90758887D01*
X146508008Y-90758887D02*
X146400258Y-90866637D01*
X146400258Y-90866637D02*
X146373321Y-90947449D01*
X146373321Y-90947449D02*
X146373321Y-91001324D01*
X146373321Y-91001324D02*
X146400258Y-91082136D01*
X146400258Y-91082136D02*
X146508008Y-91189885D01*
X146508008Y-91189885D02*
X146588820Y-91216823D01*
X146588820Y-91216823D02*
X146642695Y-91216823D01*
X146642695Y-91216823D02*
X146723507Y-91189885D01*
X146723507Y-91189885D02*
X146831257Y-91082136D01*
X146831257Y-91082136D02*
X146858194Y-91001324D01*
X146858194Y-91001324D02*
X146858194Y-90947449D01*
X146858194Y-90947449D02*
X146831257Y-90866637D01*
X146831257Y-90866637D02*
X146723507Y-90758887D01*
X146723507Y-90758887D02*
X146642695Y-90731950D01*
X146642695Y-90731950D02*
X146588820Y-90731950D01*
X146588820Y-90731950D02*
X146508008Y-90758887D01*
X170853513Y-114696384D02*
X170772701Y-114723321D01*
X170772701Y-114723321D02*
X170691889Y-114804133D01*
X170691889Y-114804133D02*
X170638014Y-114911883D01*
X170638014Y-114911883D02*
X170638014Y-115019632D01*
X170638014Y-115019632D02*
X170664951Y-115100445D01*
X170664951Y-115100445D02*
X170745764Y-115235132D01*
X170745764Y-115235132D02*
X170826576Y-115315944D01*
X170826576Y-115315944D02*
X170961263Y-115396756D01*
X170961263Y-115396756D02*
X171042075Y-115423693D01*
X171042075Y-115423693D02*
X171149825Y-115423693D01*
X171149825Y-115423693D02*
X171257574Y-115369819D01*
X171257574Y-115369819D02*
X171311449Y-115315944D01*
X171311449Y-115315944D02*
X171365324Y-115208194D01*
X171365324Y-115208194D02*
X171365324Y-115154319D01*
X171365324Y-115154319D02*
X171176762Y-114965758D01*
X171176762Y-114965758D02*
X171069012Y-115073507D01*
X171661635Y-114965758D02*
X171095950Y-114400072D01*
X171095950Y-114400072D02*
X171311449Y-114184573D01*
X171311449Y-114184573D02*
X171392261Y-114157636D01*
X171392261Y-114157636D02*
X171446136Y-114157636D01*
X171446136Y-114157636D02*
X171526948Y-114184573D01*
X171526948Y-114184573D02*
X171607760Y-114265385D01*
X171607760Y-114265385D02*
X171634698Y-114346197D01*
X171634698Y-114346197D02*
X171634698Y-114400072D01*
X171634698Y-114400072D02*
X171607760Y-114480884D01*
X171607760Y-114480884D02*
X171392261Y-114696384D01*
X172523632Y-114103761D02*
X172200383Y-114427010D01*
X172362008Y-114265385D02*
X171796322Y-113699700D01*
X171796322Y-113699700D02*
X171823260Y-113834387D01*
X171823260Y-113834387D02*
X171823260Y-113942136D01*
X171823260Y-113942136D02*
X171796322Y-114022948D01*
X172442820Y-113053202D02*
X172335070Y-113160951D01*
X172335070Y-113160951D02*
X172308133Y-113241764D01*
X172308133Y-113241764D02*
X172308133Y-113295638D01*
X172308133Y-113295638D02*
X172335070Y-113430326D01*
X172335070Y-113430326D02*
X172415883Y-113565013D01*
X172415883Y-113565013D02*
X172631382Y-113780512D01*
X172631382Y-113780512D02*
X172712194Y-113807449D01*
X172712194Y-113807449D02*
X172766069Y-113807449D01*
X172766069Y-113807449D02*
X172846881Y-113780512D01*
X172846881Y-113780512D02*
X172954631Y-113672762D01*
X172954631Y-113672762D02*
X172981568Y-113591950D01*
X172981568Y-113591950D02*
X172981568Y-113538075D01*
X172981568Y-113538075D02*
X172954631Y-113457263D01*
X172954631Y-113457263D02*
X172819944Y-113322576D01*
X172819944Y-113322576D02*
X172739131Y-113295638D01*
X172739131Y-113295638D02*
X172685257Y-113295638D01*
X172685257Y-113295638D02*
X172604444Y-113322576D01*
X172604444Y-113322576D02*
X172496695Y-113430326D01*
X172496695Y-113430326D02*
X172469757Y-113511138D01*
X172469757Y-113511138D02*
X172469757Y-113565013D01*
X172469757Y-113565013D02*
X172496695Y-113645825D01*
X170841950Y-96673946D02*
X170761138Y-96700884D01*
X170761138Y-96700884D02*
X170680326Y-96781696D01*
X170680326Y-96781696D02*
X170626451Y-96889446D01*
X170626451Y-96889446D02*
X170626451Y-96997195D01*
X170626451Y-96997195D02*
X170653389Y-97078007D01*
X170653389Y-97078007D02*
X170734201Y-97212694D01*
X170734201Y-97212694D02*
X170815013Y-97293507D01*
X170815013Y-97293507D02*
X170949700Y-97374319D01*
X170949700Y-97374319D02*
X171030512Y-97401256D01*
X171030512Y-97401256D02*
X171138262Y-97401256D01*
X171138262Y-97401256D02*
X171246011Y-97347381D01*
X171246011Y-97347381D02*
X171299886Y-97293507D01*
X171299886Y-97293507D02*
X171353761Y-97185757D01*
X171353761Y-97185757D02*
X171353761Y-97131882D01*
X171353761Y-97131882D02*
X171165199Y-96943320D01*
X171165199Y-96943320D02*
X171057450Y-97051070D01*
X171650072Y-96943320D02*
X171084387Y-96377635D01*
X171084387Y-96377635D02*
X171973321Y-96620072D01*
X171973321Y-96620072D02*
X171407636Y-96054386D01*
X172242695Y-96350698D02*
X171677010Y-95785012D01*
X171677010Y-95785012D02*
X171811697Y-95650325D01*
X171811697Y-95650325D02*
X171919446Y-95596450D01*
X171919446Y-95596450D02*
X172027196Y-95596450D01*
X172027196Y-95596450D02*
X172108008Y-95623388D01*
X172108008Y-95623388D02*
X172242695Y-95704200D01*
X172242695Y-95704200D02*
X172323507Y-95785012D01*
X172323507Y-95785012D02*
X172404319Y-95919699D01*
X172404319Y-95919699D02*
X172431257Y-96000511D01*
X172431257Y-96000511D02*
X172431257Y-96108261D01*
X172431257Y-96108261D02*
X172377382Y-96216011D01*
X172377382Y-96216011D02*
X172242695Y-96350698D01*
X145241950Y-83973946D02*
X145161138Y-84000884D01*
X145161138Y-84000884D02*
X145080326Y-84081696D01*
X145080326Y-84081696D02*
X145026451Y-84189446D01*
X145026451Y-84189446D02*
X145026451Y-84297195D01*
X145026451Y-84297195D02*
X145053389Y-84378007D01*
X145053389Y-84378007D02*
X145134201Y-84512694D01*
X145134201Y-84512694D02*
X145215013Y-84593507D01*
X145215013Y-84593507D02*
X145349700Y-84674319D01*
X145349700Y-84674319D02*
X145430512Y-84701256D01*
X145430512Y-84701256D02*
X145538262Y-84701256D01*
X145538262Y-84701256D02*
X145646011Y-84647381D01*
X145646011Y-84647381D02*
X145699886Y-84593507D01*
X145699886Y-84593507D02*
X145753761Y-84485757D01*
X145753761Y-84485757D02*
X145753761Y-84431882D01*
X145753761Y-84431882D02*
X145565199Y-84243320D01*
X145565199Y-84243320D02*
X145457450Y-84351070D01*
X146050072Y-84243320D02*
X145484387Y-83677635D01*
X145484387Y-83677635D02*
X146373321Y-83920072D01*
X146373321Y-83920072D02*
X145807636Y-83354386D01*
X146642695Y-83650698D02*
X146077010Y-83085012D01*
X146077010Y-83085012D02*
X146211697Y-82950325D01*
X146211697Y-82950325D02*
X146319446Y-82896450D01*
X146319446Y-82896450D02*
X146427196Y-82896450D01*
X146427196Y-82896450D02*
X146508008Y-82923388D01*
X146508008Y-82923388D02*
X146642695Y-83004200D01*
X146642695Y-83004200D02*
X146723507Y-83085012D01*
X146723507Y-83085012D02*
X146804319Y-83219699D01*
X146804319Y-83219699D02*
X146831257Y-83300511D01*
X146831257Y-83300511D02*
X146831257Y-83408261D01*
X146831257Y-83408261D02*
X146777382Y-83516011D01*
X146777382Y-83516011D02*
X146642695Y-83650698D01*
X170853513Y-81422384D02*
X170772701Y-81449321D01*
X170772701Y-81449321D02*
X170691889Y-81530133D01*
X170691889Y-81530133D02*
X170638014Y-81637883D01*
X170638014Y-81637883D02*
X170638014Y-81745632D01*
X170638014Y-81745632D02*
X170664951Y-81826445D01*
X170664951Y-81826445D02*
X170745764Y-81961132D01*
X170745764Y-81961132D02*
X170826576Y-82041944D01*
X170826576Y-82041944D02*
X170961263Y-82122756D01*
X170961263Y-82122756D02*
X171042075Y-82149693D01*
X171042075Y-82149693D02*
X171149825Y-82149693D01*
X171149825Y-82149693D02*
X171257574Y-82095819D01*
X171257574Y-82095819D02*
X171311449Y-82041944D01*
X171311449Y-82041944D02*
X171365324Y-81934194D01*
X171365324Y-81934194D02*
X171365324Y-81880319D01*
X171365324Y-81880319D02*
X171176762Y-81691758D01*
X171176762Y-81691758D02*
X171069012Y-81799507D01*
X171661635Y-81691758D02*
X171095950Y-81126072D01*
X171095950Y-81126072D02*
X171311449Y-80910573D01*
X171311449Y-80910573D02*
X171392261Y-80883636D01*
X171392261Y-80883636D02*
X171446136Y-80883636D01*
X171446136Y-80883636D02*
X171526948Y-80910573D01*
X171526948Y-80910573D02*
X171607760Y-80991385D01*
X171607760Y-80991385D02*
X171634698Y-81072197D01*
X171634698Y-81072197D02*
X171634698Y-81126072D01*
X171634698Y-81126072D02*
X171607760Y-81206884D01*
X171607760Y-81206884D02*
X171392261Y-81422384D01*
X171688573Y-80641199D02*
X171688573Y-80587324D01*
X171688573Y-80587324D02*
X171715510Y-80506512D01*
X171715510Y-80506512D02*
X171850197Y-80371825D01*
X171850197Y-80371825D02*
X171931009Y-80344887D01*
X171931009Y-80344887D02*
X171984884Y-80344887D01*
X171984884Y-80344887D02*
X172065696Y-80371825D01*
X172065696Y-80371825D02*
X172119571Y-80425700D01*
X172119571Y-80425700D02*
X172173446Y-80533449D01*
X172173446Y-80533449D02*
X172173446Y-81179947D01*
X172173446Y-81179947D02*
X172523632Y-80829761D01*
X172523632Y-80183263D02*
X172442820Y-80210200D01*
X172442820Y-80210200D02*
X172388945Y-80210200D01*
X172388945Y-80210200D02*
X172308133Y-80183263D01*
X172308133Y-80183263D02*
X172281196Y-80156326D01*
X172281196Y-80156326D02*
X172254258Y-80075513D01*
X172254258Y-80075513D02*
X172254258Y-80021638D01*
X172254258Y-80021638D02*
X172281196Y-79940826D01*
X172281196Y-79940826D02*
X172388945Y-79833077D01*
X172388945Y-79833077D02*
X172469757Y-79806139D01*
X172469757Y-79806139D02*
X172523632Y-79806139D01*
X172523632Y-79806139D02*
X172604444Y-79833077D01*
X172604444Y-79833077D02*
X172631382Y-79860014D01*
X172631382Y-79860014D02*
X172658319Y-79940826D01*
X172658319Y-79940826D02*
X172658319Y-79994701D01*
X172658319Y-79994701D02*
X172631382Y-80075513D01*
X172631382Y-80075513D02*
X172523632Y-80183263D01*
X172523632Y-80183263D02*
X172496695Y-80264075D01*
X172496695Y-80264075D02*
X172496695Y-80317950D01*
X172496695Y-80317950D02*
X172523632Y-80398762D01*
X172523632Y-80398762D02*
X172631382Y-80506512D01*
X172631382Y-80506512D02*
X172712194Y-80533449D01*
X172712194Y-80533449D02*
X172766069Y-80533449D01*
X172766069Y-80533449D02*
X172846881Y-80506512D01*
X172846881Y-80506512D02*
X172954631Y-80398762D01*
X172954631Y-80398762D02*
X172981568Y-80317950D01*
X172981568Y-80317950D02*
X172981568Y-80264075D01*
X172981568Y-80264075D02*
X172954631Y-80183263D01*
X172954631Y-80183263D02*
X172846881Y-80075513D01*
X172846881Y-80075513D02*
X172766069Y-80048576D01*
X172766069Y-80048576D02*
X172712194Y-80048576D01*
X172712194Y-80048576D02*
X172631382Y-80075513D01*
X145268888Y-94107009D02*
X145188075Y-94133946D01*
X145188075Y-94133946D02*
X145107263Y-94214759D01*
X145107263Y-94214759D02*
X145053388Y-94322508D01*
X145053388Y-94322508D02*
X145053388Y-94430258D01*
X145053388Y-94430258D02*
X145080326Y-94511070D01*
X145080326Y-94511070D02*
X145161138Y-94645757D01*
X145161138Y-94645757D02*
X145241950Y-94726569D01*
X145241950Y-94726569D02*
X145376637Y-94807382D01*
X145376637Y-94807382D02*
X145457449Y-94834319D01*
X145457449Y-94834319D02*
X145565199Y-94834319D01*
X145565199Y-94834319D02*
X145672949Y-94780444D01*
X145672949Y-94780444D02*
X145726823Y-94726569D01*
X145726823Y-94726569D02*
X145780698Y-94618820D01*
X145780698Y-94618820D02*
X145780698Y-94564945D01*
X145780698Y-94564945D02*
X145592136Y-94376383D01*
X145592136Y-94376383D02*
X145484387Y-94484133D01*
X146077010Y-94376383D02*
X145511324Y-93810698D01*
X145511324Y-93810698D02*
X145726823Y-93595198D01*
X145726823Y-93595198D02*
X145807636Y-93568261D01*
X145807636Y-93568261D02*
X145861510Y-93568261D01*
X145861510Y-93568261D02*
X145942323Y-93595198D01*
X145942323Y-93595198D02*
X146023135Y-93676011D01*
X146023135Y-93676011D02*
X146050072Y-93756823D01*
X146050072Y-93756823D02*
X146050072Y-93810698D01*
X146050072Y-93810698D02*
X146023135Y-93891510D01*
X146023135Y-93891510D02*
X145807636Y-94107009D01*
X146669632Y-93783760D02*
X146777382Y-93676011D01*
X146777382Y-93676011D02*
X146804319Y-93595198D01*
X146804319Y-93595198D02*
X146804319Y-93541324D01*
X146804319Y-93541324D02*
X146777382Y-93406637D01*
X146777382Y-93406637D02*
X146696570Y-93271950D01*
X146696570Y-93271950D02*
X146481071Y-93056450D01*
X146481071Y-93056450D02*
X146400258Y-93029513D01*
X146400258Y-93029513D02*
X146346384Y-93029513D01*
X146346384Y-93029513D02*
X146265571Y-93056450D01*
X146265571Y-93056450D02*
X146157822Y-93164200D01*
X146157822Y-93164200D02*
X146130884Y-93245012D01*
X146130884Y-93245012D02*
X146130884Y-93298887D01*
X146130884Y-93298887D02*
X146157822Y-93379699D01*
X146157822Y-93379699D02*
X146292509Y-93514386D01*
X146292509Y-93514386D02*
X146373321Y-93541324D01*
X146373321Y-93541324D02*
X146427196Y-93541324D01*
X146427196Y-93541324D02*
X146508008Y-93514386D01*
X146508008Y-93514386D02*
X146615758Y-93406637D01*
X146615758Y-93406637D02*
X146642695Y-93325824D01*
X146642695Y-93325824D02*
X146642695Y-93271950D01*
X146642695Y-93271950D02*
X146615758Y-93191137D01*
X162654761Y-116702000D02*
X162769047Y-116740095D01*
X162769047Y-116740095D02*
X162959523Y-116740095D01*
X162959523Y-116740095D02*
X163035714Y-116702000D01*
X163035714Y-116702000D02*
X163073809Y-116663904D01*
X163073809Y-116663904D02*
X163111904Y-116587714D01*
X163111904Y-116587714D02*
X163111904Y-116511523D01*
X163111904Y-116511523D02*
X163073809Y-116435333D01*
X163073809Y-116435333D02*
X163035714Y-116397238D01*
X163035714Y-116397238D02*
X162959523Y-116359142D01*
X162959523Y-116359142D02*
X162807142Y-116321047D01*
X162807142Y-116321047D02*
X162730952Y-116282952D01*
X162730952Y-116282952D02*
X162692857Y-116244857D01*
X162692857Y-116244857D02*
X162654761Y-116168666D01*
X162654761Y-116168666D02*
X162654761Y-116092476D01*
X162654761Y-116092476D02*
X162692857Y-116016285D01*
X162692857Y-116016285D02*
X162730952Y-115978190D01*
X162730952Y-115978190D02*
X162807142Y-115940095D01*
X162807142Y-115940095D02*
X162997619Y-115940095D01*
X162997619Y-115940095D02*
X163111904Y-115978190D01*
X163378571Y-115940095D02*
X163569047Y-116740095D01*
X163569047Y-116740095D02*
X163721428Y-116168666D01*
X163721428Y-116168666D02*
X163873809Y-116740095D01*
X163873809Y-116740095D02*
X164064286Y-115940095D01*
X164369048Y-116740095D02*
X164369048Y-115940095D01*
X164369048Y-115940095D02*
X164559524Y-115940095D01*
X164559524Y-115940095D02*
X164673810Y-115978190D01*
X164673810Y-115978190D02*
X164750000Y-116054380D01*
X164750000Y-116054380D02*
X164788095Y-116130571D01*
X164788095Y-116130571D02*
X164826191Y-116282952D01*
X164826191Y-116282952D02*
X164826191Y-116397238D01*
X164826191Y-116397238D02*
X164788095Y-116549619D01*
X164788095Y-116549619D02*
X164750000Y-116625809D01*
X164750000Y-116625809D02*
X164673810Y-116702000D01*
X164673810Y-116702000D02*
X164559524Y-116740095D01*
X164559524Y-116740095D02*
X164369048Y-116740095D01*
X165169048Y-116740095D02*
X165169048Y-115940095D01*
X165702381Y-115940095D02*
X165854762Y-115940095D01*
X165854762Y-115940095D02*
X165930952Y-115978190D01*
X165930952Y-115978190D02*
X166007143Y-116054380D01*
X166007143Y-116054380D02*
X166045238Y-116206761D01*
X166045238Y-116206761D02*
X166045238Y-116473428D01*
X166045238Y-116473428D02*
X166007143Y-116625809D01*
X166007143Y-116625809D02*
X165930952Y-116702000D01*
X165930952Y-116702000D02*
X165854762Y-116740095D01*
X165854762Y-116740095D02*
X165702381Y-116740095D01*
X165702381Y-116740095D02*
X165626190Y-116702000D01*
X165626190Y-116702000D02*
X165550000Y-116625809D01*
X165550000Y-116625809D02*
X165511904Y-116473428D01*
X165511904Y-116473428D02*
X165511904Y-116206761D01*
X165511904Y-116206761D02*
X165550000Y-116054380D01*
X165550000Y-116054380D02*
X165626190Y-115978190D01*
X165626190Y-115978190D02*
X165702381Y-115940095D01*
X145268888Y-81407009D02*
X145188075Y-81433946D01*
X145188075Y-81433946D02*
X145107263Y-81514759D01*
X145107263Y-81514759D02*
X145053388Y-81622508D01*
X145053388Y-81622508D02*
X145053388Y-81730258D01*
X145053388Y-81730258D02*
X145080326Y-81811070D01*
X145080326Y-81811070D02*
X145161138Y-81945757D01*
X145161138Y-81945757D02*
X145241950Y-82026569D01*
X145241950Y-82026569D02*
X145376637Y-82107382D01*
X145376637Y-82107382D02*
X145457449Y-82134319D01*
X145457449Y-82134319D02*
X145565199Y-82134319D01*
X145565199Y-82134319D02*
X145672949Y-82080444D01*
X145672949Y-82080444D02*
X145726823Y-82026569D01*
X145726823Y-82026569D02*
X145780698Y-81918820D01*
X145780698Y-81918820D02*
X145780698Y-81864945D01*
X145780698Y-81864945D02*
X145592136Y-81676383D01*
X145592136Y-81676383D02*
X145484387Y-81784133D01*
X146077010Y-81676383D02*
X145511324Y-81110698D01*
X145511324Y-81110698D02*
X145726823Y-80895198D01*
X145726823Y-80895198D02*
X145807636Y-80868261D01*
X145807636Y-80868261D02*
X145861510Y-80868261D01*
X145861510Y-80868261D02*
X145942323Y-80895198D01*
X145942323Y-80895198D02*
X146023135Y-80976011D01*
X146023135Y-80976011D02*
X146050072Y-81056823D01*
X146050072Y-81056823D02*
X146050072Y-81110698D01*
X146050072Y-81110698D02*
X146023135Y-81191510D01*
X146023135Y-81191510D02*
X145807636Y-81407009D01*
X146346384Y-80275638D02*
X146077010Y-80545012D01*
X146077010Y-80545012D02*
X146319446Y-80841324D01*
X146319446Y-80841324D02*
X146319446Y-80787449D01*
X146319446Y-80787449D02*
X146346384Y-80706637D01*
X146346384Y-80706637D02*
X146481071Y-80571950D01*
X146481071Y-80571950D02*
X146561883Y-80545012D01*
X146561883Y-80545012D02*
X146615758Y-80545012D01*
X146615758Y-80545012D02*
X146696570Y-80571950D01*
X146696570Y-80571950D02*
X146831257Y-80706637D01*
X146831257Y-80706637D02*
X146858194Y-80787449D01*
X146858194Y-80787449D02*
X146858194Y-80841324D01*
X146858194Y-80841324D02*
X146831257Y-80922136D01*
X146831257Y-80922136D02*
X146696570Y-81056823D01*
X146696570Y-81056823D02*
X146615758Y-81083760D01*
X146615758Y-81083760D02*
X146561883Y-81083760D01*
X145268888Y-66167009D02*
X145188075Y-66193946D01*
X145188075Y-66193946D02*
X145107263Y-66274759D01*
X145107263Y-66274759D02*
X145053388Y-66382508D01*
X145053388Y-66382508D02*
X145053388Y-66490258D01*
X145053388Y-66490258D02*
X145080326Y-66571070D01*
X145080326Y-66571070D02*
X145161138Y-66705757D01*
X145161138Y-66705757D02*
X145241950Y-66786569D01*
X145241950Y-66786569D02*
X145376637Y-66867382D01*
X145376637Y-66867382D02*
X145457449Y-66894319D01*
X145457449Y-66894319D02*
X145565199Y-66894319D01*
X145565199Y-66894319D02*
X145672949Y-66840444D01*
X145672949Y-66840444D02*
X145726823Y-66786569D01*
X145726823Y-66786569D02*
X145780698Y-66678820D01*
X145780698Y-66678820D02*
X145780698Y-66624945D01*
X145780698Y-66624945D02*
X145592136Y-66436383D01*
X145592136Y-66436383D02*
X145484387Y-66544133D01*
X146077010Y-66436383D02*
X145511324Y-65870698D01*
X145511324Y-65870698D02*
X145726823Y-65655198D01*
X145726823Y-65655198D02*
X145807636Y-65628261D01*
X145807636Y-65628261D02*
X145861510Y-65628261D01*
X145861510Y-65628261D02*
X145942323Y-65655198D01*
X145942323Y-65655198D02*
X146023135Y-65736011D01*
X146023135Y-65736011D02*
X146050072Y-65816823D01*
X146050072Y-65816823D02*
X146050072Y-65870698D01*
X146050072Y-65870698D02*
X146023135Y-65951510D01*
X146023135Y-65951510D02*
X145807636Y-66167009D01*
X146184759Y-65197263D02*
X146238634Y-65143388D01*
X146238634Y-65143388D02*
X146319446Y-65116450D01*
X146319446Y-65116450D02*
X146373321Y-65116450D01*
X146373321Y-65116450D02*
X146454133Y-65143388D01*
X146454133Y-65143388D02*
X146588820Y-65224200D01*
X146588820Y-65224200D02*
X146723507Y-65358887D01*
X146723507Y-65358887D02*
X146804319Y-65493574D01*
X146804319Y-65493574D02*
X146831257Y-65574386D01*
X146831257Y-65574386D02*
X146831257Y-65628261D01*
X146831257Y-65628261D02*
X146804319Y-65709073D01*
X146804319Y-65709073D02*
X146750445Y-65762948D01*
X146750445Y-65762948D02*
X146669632Y-65789885D01*
X146669632Y-65789885D02*
X146615758Y-65789885D01*
X146615758Y-65789885D02*
X146534945Y-65762948D01*
X146534945Y-65762948D02*
X146400258Y-65682136D01*
X146400258Y-65682136D02*
X146265571Y-65547449D01*
X146265571Y-65547449D02*
X146184759Y-65412762D01*
X146184759Y-65412762D02*
X146157822Y-65331950D01*
X146157822Y-65331950D02*
X146157822Y-65278075D01*
X146157822Y-65278075D02*
X146184759Y-65197263D01*
X145268888Y-76327009D02*
X145188075Y-76353946D01*
X145188075Y-76353946D02*
X145107263Y-76434759D01*
X145107263Y-76434759D02*
X145053388Y-76542508D01*
X145053388Y-76542508D02*
X145053388Y-76650258D01*
X145053388Y-76650258D02*
X145080326Y-76731070D01*
X145080326Y-76731070D02*
X145161138Y-76865757D01*
X145161138Y-76865757D02*
X145241950Y-76946569D01*
X145241950Y-76946569D02*
X145376637Y-77027382D01*
X145376637Y-77027382D02*
X145457449Y-77054319D01*
X145457449Y-77054319D02*
X145565199Y-77054319D01*
X145565199Y-77054319D02*
X145672949Y-77000444D01*
X145672949Y-77000444D02*
X145726823Y-76946569D01*
X145726823Y-76946569D02*
X145780698Y-76838820D01*
X145780698Y-76838820D02*
X145780698Y-76784945D01*
X145780698Y-76784945D02*
X145592136Y-76596383D01*
X145592136Y-76596383D02*
X145484387Y-76704133D01*
X146077010Y-76596383D02*
X145511324Y-76030698D01*
X145511324Y-76030698D02*
X145726823Y-75815198D01*
X145726823Y-75815198D02*
X145807636Y-75788261D01*
X145807636Y-75788261D02*
X145861510Y-75788261D01*
X145861510Y-75788261D02*
X145942323Y-75815198D01*
X145942323Y-75815198D02*
X146023135Y-75896011D01*
X146023135Y-75896011D02*
X146050072Y-75976823D01*
X146050072Y-75976823D02*
X146050072Y-76030698D01*
X146050072Y-76030698D02*
X146023135Y-76111510D01*
X146023135Y-76111510D02*
X145807636Y-76327009D01*
X146023135Y-75518887D02*
X146373321Y-75168701D01*
X146373321Y-75168701D02*
X146400258Y-75572762D01*
X146400258Y-75572762D02*
X146481071Y-75491950D01*
X146481071Y-75491950D02*
X146561883Y-75465012D01*
X146561883Y-75465012D02*
X146615758Y-75465012D01*
X146615758Y-75465012D02*
X146696570Y-75491950D01*
X146696570Y-75491950D02*
X146831257Y-75626637D01*
X146831257Y-75626637D02*
X146858194Y-75707449D01*
X146858194Y-75707449D02*
X146858194Y-75761324D01*
X146858194Y-75761324D02*
X146831257Y-75842136D01*
X146831257Y-75842136D02*
X146669632Y-76003760D01*
X146669632Y-76003760D02*
X146588820Y-76030698D01*
X146588820Y-76030698D02*
X146534945Y-76030698D01*
X145241950Y-109373946D02*
X145161138Y-109400884D01*
X145161138Y-109400884D02*
X145080326Y-109481696D01*
X145080326Y-109481696D02*
X145026451Y-109589446D01*
X145026451Y-109589446D02*
X145026451Y-109697195D01*
X145026451Y-109697195D02*
X145053389Y-109778007D01*
X145053389Y-109778007D02*
X145134201Y-109912694D01*
X145134201Y-109912694D02*
X145215013Y-109993507D01*
X145215013Y-109993507D02*
X145349700Y-110074319D01*
X145349700Y-110074319D02*
X145430512Y-110101256D01*
X145430512Y-110101256D02*
X145538262Y-110101256D01*
X145538262Y-110101256D02*
X145646011Y-110047381D01*
X145646011Y-110047381D02*
X145699886Y-109993507D01*
X145699886Y-109993507D02*
X145753761Y-109885757D01*
X145753761Y-109885757D02*
X145753761Y-109831882D01*
X145753761Y-109831882D02*
X145565199Y-109643320D01*
X145565199Y-109643320D02*
X145457450Y-109751070D01*
X146050072Y-109643320D02*
X145484387Y-109077635D01*
X145484387Y-109077635D02*
X146373321Y-109320072D01*
X146373321Y-109320072D02*
X145807636Y-108754386D01*
X146642695Y-109050698D02*
X146077010Y-108485012D01*
X146077010Y-108485012D02*
X146211697Y-108350325D01*
X146211697Y-108350325D02*
X146319446Y-108296450D01*
X146319446Y-108296450D02*
X146427196Y-108296450D01*
X146427196Y-108296450D02*
X146508008Y-108323388D01*
X146508008Y-108323388D02*
X146642695Y-108404200D01*
X146642695Y-108404200D02*
X146723507Y-108485012D01*
X146723507Y-108485012D02*
X146804319Y-108619699D01*
X146804319Y-108619699D02*
X146831257Y-108700511D01*
X146831257Y-108700511D02*
X146831257Y-108808261D01*
X146831257Y-108808261D02*
X146777382Y-108916011D01*
X146777382Y-108916011D02*
X146642695Y-109050698D01*
X145241950Y-71273946D02*
X145161138Y-71300884D01*
X145161138Y-71300884D02*
X145080326Y-71381696D01*
X145080326Y-71381696D02*
X145026451Y-71489446D01*
X145026451Y-71489446D02*
X145026451Y-71597195D01*
X145026451Y-71597195D02*
X145053389Y-71678007D01*
X145053389Y-71678007D02*
X145134201Y-71812694D01*
X145134201Y-71812694D02*
X145215013Y-71893507D01*
X145215013Y-71893507D02*
X145349700Y-71974319D01*
X145349700Y-71974319D02*
X145430512Y-72001256D01*
X145430512Y-72001256D02*
X145538262Y-72001256D01*
X145538262Y-72001256D02*
X145646011Y-71947381D01*
X145646011Y-71947381D02*
X145699886Y-71893507D01*
X145699886Y-71893507D02*
X145753761Y-71785757D01*
X145753761Y-71785757D02*
X145753761Y-71731882D01*
X145753761Y-71731882D02*
X145565199Y-71543320D01*
X145565199Y-71543320D02*
X145457450Y-71651070D01*
X146050072Y-71543320D02*
X145484387Y-70977635D01*
X145484387Y-70977635D02*
X146373321Y-71220072D01*
X146373321Y-71220072D02*
X145807636Y-70654386D01*
X146642695Y-70950698D02*
X146077010Y-70385012D01*
X146077010Y-70385012D02*
X146211697Y-70250325D01*
X146211697Y-70250325D02*
X146319446Y-70196450D01*
X146319446Y-70196450D02*
X146427196Y-70196450D01*
X146427196Y-70196450D02*
X146508008Y-70223388D01*
X146508008Y-70223388D02*
X146642695Y-70304200D01*
X146642695Y-70304200D02*
X146723507Y-70385012D01*
X146723507Y-70385012D02*
X146804319Y-70519699D01*
X146804319Y-70519699D02*
X146831257Y-70600511D01*
X146831257Y-70600511D02*
X146831257Y-70708261D01*
X146831257Y-70708261D02*
X146777382Y-70816011D01*
X146777382Y-70816011D02*
X146642695Y-70950698D01*
X170853513Y-101996384D02*
X170772701Y-102023321D01*
X170772701Y-102023321D02*
X170691889Y-102104133D01*
X170691889Y-102104133D02*
X170638014Y-102211883D01*
X170638014Y-102211883D02*
X170638014Y-102319632D01*
X170638014Y-102319632D02*
X170664951Y-102400445D01*
X170664951Y-102400445D02*
X170745764Y-102535132D01*
X170745764Y-102535132D02*
X170826576Y-102615944D01*
X170826576Y-102615944D02*
X170961263Y-102696756D01*
X170961263Y-102696756D02*
X171042075Y-102723693D01*
X171042075Y-102723693D02*
X171149825Y-102723693D01*
X171149825Y-102723693D02*
X171257574Y-102669819D01*
X171257574Y-102669819D02*
X171311449Y-102615944D01*
X171311449Y-102615944D02*
X171365324Y-102508194D01*
X171365324Y-102508194D02*
X171365324Y-102454319D01*
X171365324Y-102454319D02*
X171176762Y-102265758D01*
X171176762Y-102265758D02*
X171069012Y-102373507D01*
X171661635Y-102265758D02*
X171095950Y-101700072D01*
X171095950Y-101700072D02*
X171311449Y-101484573D01*
X171311449Y-101484573D02*
X171392261Y-101457636D01*
X171392261Y-101457636D02*
X171446136Y-101457636D01*
X171446136Y-101457636D02*
X171526948Y-101484573D01*
X171526948Y-101484573D02*
X171607760Y-101565385D01*
X171607760Y-101565385D02*
X171634698Y-101646197D01*
X171634698Y-101646197D02*
X171634698Y-101700072D01*
X171634698Y-101700072D02*
X171607760Y-101780884D01*
X171607760Y-101780884D02*
X171392261Y-101996384D01*
X171688573Y-101215199D02*
X171688573Y-101161324D01*
X171688573Y-101161324D02*
X171715510Y-101080512D01*
X171715510Y-101080512D02*
X171850197Y-100945825D01*
X171850197Y-100945825D02*
X171931009Y-100918887D01*
X171931009Y-100918887D02*
X171984884Y-100918887D01*
X171984884Y-100918887D02*
X172065696Y-100945825D01*
X172065696Y-100945825D02*
X172119571Y-100999700D01*
X172119571Y-100999700D02*
X172173446Y-101107449D01*
X172173446Y-101107449D02*
X172173446Y-101753947D01*
X172173446Y-101753947D02*
X172523632Y-101403761D01*
X172308133Y-100487889D02*
X172362008Y-100434014D01*
X172362008Y-100434014D02*
X172442820Y-100407077D01*
X172442820Y-100407077D02*
X172496695Y-100407077D01*
X172496695Y-100407077D02*
X172577507Y-100434014D01*
X172577507Y-100434014D02*
X172712194Y-100514826D01*
X172712194Y-100514826D02*
X172846881Y-100649513D01*
X172846881Y-100649513D02*
X172927693Y-100784200D01*
X172927693Y-100784200D02*
X172954631Y-100865013D01*
X172954631Y-100865013D02*
X172954631Y-100918887D01*
X172954631Y-100918887D02*
X172927693Y-100999700D01*
X172927693Y-100999700D02*
X172873818Y-101053574D01*
X172873818Y-101053574D02*
X172793006Y-101080512D01*
X172793006Y-101080512D02*
X172739131Y-101080512D01*
X172739131Y-101080512D02*
X172658319Y-101053574D01*
X172658319Y-101053574D02*
X172523632Y-100972762D01*
X172523632Y-100972762D02*
X172388945Y-100838075D01*
X172388945Y-100838075D02*
X172308133Y-100703388D01*
X172308133Y-100703388D02*
X172281196Y-100622576D01*
X172281196Y-100622576D02*
X172281196Y-100568701D01*
X172281196Y-100568701D02*
X172308133Y-100487889D01*
X170853513Y-104536384D02*
X170772701Y-104563321D01*
X170772701Y-104563321D02*
X170691889Y-104644133D01*
X170691889Y-104644133D02*
X170638014Y-104751883D01*
X170638014Y-104751883D02*
X170638014Y-104859632D01*
X170638014Y-104859632D02*
X170664951Y-104940445D01*
X170664951Y-104940445D02*
X170745764Y-105075132D01*
X170745764Y-105075132D02*
X170826576Y-105155944D01*
X170826576Y-105155944D02*
X170961263Y-105236756D01*
X170961263Y-105236756D02*
X171042075Y-105263693D01*
X171042075Y-105263693D02*
X171149825Y-105263693D01*
X171149825Y-105263693D02*
X171257574Y-105209819D01*
X171257574Y-105209819D02*
X171311449Y-105155944D01*
X171311449Y-105155944D02*
X171365324Y-105048194D01*
X171365324Y-105048194D02*
X171365324Y-104994319D01*
X171365324Y-104994319D02*
X171176762Y-104805758D01*
X171176762Y-104805758D02*
X171069012Y-104913507D01*
X171661635Y-104805758D02*
X171095950Y-104240072D01*
X171095950Y-104240072D02*
X171311449Y-104024573D01*
X171311449Y-104024573D02*
X171392261Y-103997636D01*
X171392261Y-103997636D02*
X171446136Y-103997636D01*
X171446136Y-103997636D02*
X171526948Y-104024573D01*
X171526948Y-104024573D02*
X171607760Y-104105385D01*
X171607760Y-104105385D02*
X171634698Y-104186197D01*
X171634698Y-104186197D02*
X171634698Y-104240072D01*
X171634698Y-104240072D02*
X171607760Y-104320884D01*
X171607760Y-104320884D02*
X171392261Y-104536384D01*
X172523632Y-103943761D02*
X172200383Y-104267010D01*
X172362008Y-104105385D02*
X171796322Y-103539700D01*
X171796322Y-103539700D02*
X171823260Y-103674387D01*
X171823260Y-103674387D02*
X171823260Y-103782136D01*
X171823260Y-103782136D02*
X171796322Y-103862948D01*
X172793006Y-103674387D02*
X172900756Y-103566637D01*
X172900756Y-103566637D02*
X172927693Y-103485825D01*
X172927693Y-103485825D02*
X172927693Y-103431950D01*
X172927693Y-103431950D02*
X172900756Y-103297263D01*
X172900756Y-103297263D02*
X172819944Y-103162576D01*
X172819944Y-103162576D02*
X172604444Y-102947077D01*
X172604444Y-102947077D02*
X172523632Y-102920139D01*
X172523632Y-102920139D02*
X172469757Y-102920139D01*
X172469757Y-102920139D02*
X172388945Y-102947077D01*
X172388945Y-102947077D02*
X172281196Y-103054826D01*
X172281196Y-103054826D02*
X172254258Y-103135638D01*
X172254258Y-103135638D02*
X172254258Y-103189513D01*
X172254258Y-103189513D02*
X172281196Y-103270326D01*
X172281196Y-103270326D02*
X172415883Y-103405013D01*
X172415883Y-103405013D02*
X172496695Y-103431950D01*
X172496695Y-103431950D02*
X172550570Y-103431950D01*
X172550570Y-103431950D02*
X172631382Y-103405013D01*
X172631382Y-103405013D02*
X172739131Y-103297263D01*
X172739131Y-103297263D02*
X172766069Y-103216451D01*
X172766069Y-103216451D02*
X172766069Y-103162576D01*
X172766069Y-103162576D02*
X172739131Y-103081764D01*
X145168888Y-73787009D02*
X145088075Y-73813946D01*
X145088075Y-73813946D02*
X145007263Y-73894759D01*
X145007263Y-73894759D02*
X144953388Y-74002508D01*
X144953388Y-74002508D02*
X144953388Y-74110258D01*
X144953388Y-74110258D02*
X144980326Y-74191070D01*
X144980326Y-74191070D02*
X145061138Y-74325757D01*
X145061138Y-74325757D02*
X145141950Y-74406569D01*
X145141950Y-74406569D02*
X145276637Y-74487382D01*
X145276637Y-74487382D02*
X145357449Y-74514319D01*
X145357449Y-74514319D02*
X145465199Y-74514319D01*
X145465199Y-74514319D02*
X145572949Y-74460444D01*
X145572949Y-74460444D02*
X145626823Y-74406569D01*
X145626823Y-74406569D02*
X145680698Y-74298820D01*
X145680698Y-74298820D02*
X145680698Y-74244945D01*
X145680698Y-74244945D02*
X145492136Y-74056383D01*
X145492136Y-74056383D02*
X145384387Y-74164133D01*
X145977010Y-74056383D02*
X145411324Y-73490698D01*
X145411324Y-73490698D02*
X145626823Y-73275198D01*
X145626823Y-73275198D02*
X145707636Y-73248261D01*
X145707636Y-73248261D02*
X145761510Y-73248261D01*
X145761510Y-73248261D02*
X145842323Y-73275198D01*
X145842323Y-73275198D02*
X145923135Y-73356011D01*
X145923135Y-73356011D02*
X145950072Y-73436823D01*
X145950072Y-73436823D02*
X145950072Y-73490698D01*
X145950072Y-73490698D02*
X145923135Y-73571510D01*
X145923135Y-73571510D02*
X145707636Y-73787009D01*
X146003947Y-73005824D02*
X146003947Y-72951950D01*
X146003947Y-72951950D02*
X146030884Y-72871137D01*
X146030884Y-72871137D02*
X146165571Y-72736450D01*
X146165571Y-72736450D02*
X146246384Y-72709513D01*
X146246384Y-72709513D02*
X146300258Y-72709513D01*
X146300258Y-72709513D02*
X146381071Y-72736450D01*
X146381071Y-72736450D02*
X146434945Y-72790325D01*
X146434945Y-72790325D02*
X146488820Y-72898075D01*
X146488820Y-72898075D02*
X146488820Y-73544572D01*
X146488820Y-73544572D02*
X146839006Y-73194386D01*
X170853513Y-107076384D02*
X170772701Y-107103321D01*
X170772701Y-107103321D02*
X170691889Y-107184133D01*
X170691889Y-107184133D02*
X170638014Y-107291883D01*
X170638014Y-107291883D02*
X170638014Y-107399632D01*
X170638014Y-107399632D02*
X170664951Y-107480445D01*
X170664951Y-107480445D02*
X170745764Y-107615132D01*
X170745764Y-107615132D02*
X170826576Y-107695944D01*
X170826576Y-107695944D02*
X170961263Y-107776756D01*
X170961263Y-107776756D02*
X171042075Y-107803693D01*
X171042075Y-107803693D02*
X171149825Y-107803693D01*
X171149825Y-107803693D02*
X171257574Y-107749819D01*
X171257574Y-107749819D02*
X171311449Y-107695944D01*
X171311449Y-107695944D02*
X171365324Y-107588194D01*
X171365324Y-107588194D02*
X171365324Y-107534319D01*
X171365324Y-107534319D02*
X171176762Y-107345758D01*
X171176762Y-107345758D02*
X171069012Y-107453507D01*
X171661635Y-107345758D02*
X171095950Y-106780072D01*
X171095950Y-106780072D02*
X171311449Y-106564573D01*
X171311449Y-106564573D02*
X171392261Y-106537636D01*
X171392261Y-106537636D02*
X171446136Y-106537636D01*
X171446136Y-106537636D02*
X171526948Y-106564573D01*
X171526948Y-106564573D02*
X171607760Y-106645385D01*
X171607760Y-106645385D02*
X171634698Y-106726197D01*
X171634698Y-106726197D02*
X171634698Y-106780072D01*
X171634698Y-106780072D02*
X171607760Y-106860884D01*
X171607760Y-106860884D02*
X171392261Y-107076384D01*
X172523632Y-106483761D02*
X172200383Y-106807010D01*
X172362008Y-106645385D02*
X171796322Y-106079700D01*
X171796322Y-106079700D02*
X171823260Y-106214387D01*
X171823260Y-106214387D02*
X171823260Y-106322136D01*
X171823260Y-106322136D02*
X171796322Y-106402948D01*
X172523632Y-105837263D02*
X172442820Y-105864200D01*
X172442820Y-105864200D02*
X172388945Y-105864200D01*
X172388945Y-105864200D02*
X172308133Y-105837263D01*
X172308133Y-105837263D02*
X172281196Y-105810326D01*
X172281196Y-105810326D02*
X172254258Y-105729513D01*
X172254258Y-105729513D02*
X172254258Y-105675638D01*
X172254258Y-105675638D02*
X172281196Y-105594826D01*
X172281196Y-105594826D02*
X172388945Y-105487077D01*
X172388945Y-105487077D02*
X172469757Y-105460139D01*
X172469757Y-105460139D02*
X172523632Y-105460139D01*
X172523632Y-105460139D02*
X172604444Y-105487077D01*
X172604444Y-105487077D02*
X172631382Y-105514014D01*
X172631382Y-105514014D02*
X172658319Y-105594826D01*
X172658319Y-105594826D02*
X172658319Y-105648701D01*
X172658319Y-105648701D02*
X172631382Y-105729513D01*
X172631382Y-105729513D02*
X172523632Y-105837263D01*
X172523632Y-105837263D02*
X172496695Y-105918075D01*
X172496695Y-105918075D02*
X172496695Y-105971950D01*
X172496695Y-105971950D02*
X172523632Y-106052762D01*
X172523632Y-106052762D02*
X172631382Y-106160512D01*
X172631382Y-106160512D02*
X172712194Y-106187449D01*
X172712194Y-106187449D02*
X172766069Y-106187449D01*
X172766069Y-106187449D02*
X172846881Y-106160512D01*
X172846881Y-106160512D02*
X172954631Y-106052762D01*
X172954631Y-106052762D02*
X172981568Y-105971950D01*
X172981568Y-105971950D02*
X172981568Y-105918075D01*
X172981568Y-105918075D02*
X172954631Y-105837263D01*
X172954631Y-105837263D02*
X172846881Y-105729513D01*
X172846881Y-105729513D02*
X172766069Y-105702576D01*
X172766069Y-105702576D02*
X172712194Y-105702576D01*
X172712194Y-105702576D02*
X172631382Y-105729513D01*
X145268888Y-86487009D02*
X145188075Y-86513946D01*
X145188075Y-86513946D02*
X145107263Y-86594759D01*
X145107263Y-86594759D02*
X145053388Y-86702508D01*
X145053388Y-86702508D02*
X145053388Y-86810258D01*
X145053388Y-86810258D02*
X145080326Y-86891070D01*
X145080326Y-86891070D02*
X145161138Y-87025757D01*
X145161138Y-87025757D02*
X145241950Y-87106569D01*
X145241950Y-87106569D02*
X145376637Y-87187382D01*
X145376637Y-87187382D02*
X145457449Y-87214319D01*
X145457449Y-87214319D02*
X145565199Y-87214319D01*
X145565199Y-87214319D02*
X145672949Y-87160444D01*
X145672949Y-87160444D02*
X145726823Y-87106569D01*
X145726823Y-87106569D02*
X145780698Y-86998820D01*
X145780698Y-86998820D02*
X145780698Y-86944945D01*
X145780698Y-86944945D02*
X145592136Y-86756383D01*
X145592136Y-86756383D02*
X145484387Y-86864133D01*
X146077010Y-86756383D02*
X145511324Y-86190698D01*
X145511324Y-86190698D02*
X145726823Y-85975198D01*
X145726823Y-85975198D02*
X145807636Y-85948261D01*
X145807636Y-85948261D02*
X145861510Y-85948261D01*
X145861510Y-85948261D02*
X145942323Y-85975198D01*
X145942323Y-85975198D02*
X146023135Y-86056011D01*
X146023135Y-86056011D02*
X146050072Y-86136823D01*
X146050072Y-86136823D02*
X146050072Y-86190698D01*
X146050072Y-86190698D02*
X146023135Y-86271510D01*
X146023135Y-86271510D02*
X145807636Y-86487009D01*
X146319446Y-85382576D02*
X146211697Y-85490325D01*
X146211697Y-85490325D02*
X146184759Y-85571137D01*
X146184759Y-85571137D02*
X146184759Y-85625012D01*
X146184759Y-85625012D02*
X146211697Y-85759699D01*
X146211697Y-85759699D02*
X146292509Y-85894386D01*
X146292509Y-85894386D02*
X146508008Y-86109885D01*
X146508008Y-86109885D02*
X146588820Y-86136823D01*
X146588820Y-86136823D02*
X146642695Y-86136823D01*
X146642695Y-86136823D02*
X146723507Y-86109885D01*
X146723507Y-86109885D02*
X146831257Y-86002136D01*
X146831257Y-86002136D02*
X146858194Y-85921324D01*
X146858194Y-85921324D02*
X146858194Y-85867449D01*
X146858194Y-85867449D02*
X146831257Y-85786637D01*
X146831257Y-85786637D02*
X146696570Y-85651950D01*
X146696570Y-85651950D02*
X146615758Y-85625012D01*
X146615758Y-85625012D02*
X146561883Y-85625012D01*
X146561883Y-85625012D02*
X146481071Y-85651950D01*
X146481071Y-85651950D02*
X146373321Y-85759699D01*
X146373321Y-85759699D02*
X146346384Y-85840511D01*
X146346384Y-85840511D02*
X146346384Y-85894386D01*
X146346384Y-85894386D02*
X146373321Y-85975198D01*
X170853513Y-99466384D02*
X170772701Y-99493321D01*
X170772701Y-99493321D02*
X170691889Y-99574133D01*
X170691889Y-99574133D02*
X170638014Y-99681883D01*
X170638014Y-99681883D02*
X170638014Y-99789632D01*
X170638014Y-99789632D02*
X170664951Y-99870445D01*
X170664951Y-99870445D02*
X170745764Y-100005132D01*
X170745764Y-100005132D02*
X170826576Y-100085944D01*
X170826576Y-100085944D02*
X170961263Y-100166756D01*
X170961263Y-100166756D02*
X171042075Y-100193693D01*
X171042075Y-100193693D02*
X171149825Y-100193693D01*
X171149825Y-100193693D02*
X171257574Y-100139819D01*
X171257574Y-100139819D02*
X171311449Y-100085944D01*
X171311449Y-100085944D02*
X171365324Y-99978194D01*
X171365324Y-99978194D02*
X171365324Y-99924319D01*
X171365324Y-99924319D02*
X171176762Y-99735758D01*
X171176762Y-99735758D02*
X171069012Y-99843507D01*
X171661635Y-99735758D02*
X171095950Y-99170072D01*
X171095950Y-99170072D02*
X171311449Y-98954573D01*
X171311449Y-98954573D02*
X171392261Y-98927636D01*
X171392261Y-98927636D02*
X171446136Y-98927636D01*
X171446136Y-98927636D02*
X171526948Y-98954573D01*
X171526948Y-98954573D02*
X171607760Y-99035385D01*
X171607760Y-99035385D02*
X171634698Y-99116197D01*
X171634698Y-99116197D02*
X171634698Y-99170072D01*
X171634698Y-99170072D02*
X171607760Y-99250884D01*
X171607760Y-99250884D02*
X171392261Y-99466384D01*
X171688573Y-98685199D02*
X171688573Y-98631324D01*
X171688573Y-98631324D02*
X171715510Y-98550512D01*
X171715510Y-98550512D02*
X171850197Y-98415825D01*
X171850197Y-98415825D02*
X171931009Y-98388887D01*
X171931009Y-98388887D02*
X171984884Y-98388887D01*
X171984884Y-98388887D02*
X172065696Y-98415825D01*
X172065696Y-98415825D02*
X172119571Y-98469700D01*
X172119571Y-98469700D02*
X172173446Y-98577449D01*
X172173446Y-98577449D02*
X172173446Y-99223947D01*
X172173446Y-99223947D02*
X172523632Y-98873761D01*
X173062380Y-98335013D02*
X172739131Y-98658261D01*
X172900756Y-98496637D02*
X172335070Y-97930951D01*
X172335070Y-97930951D02*
X172362008Y-98065638D01*
X172362008Y-98065638D02*
X172362008Y-98173388D01*
X172362008Y-98173388D02*
X172335070Y-98254200D01*
X170853513Y-94376384D02*
X170772701Y-94403321D01*
X170772701Y-94403321D02*
X170691889Y-94484133D01*
X170691889Y-94484133D02*
X170638014Y-94591883D01*
X170638014Y-94591883D02*
X170638014Y-94699632D01*
X170638014Y-94699632D02*
X170664951Y-94780445D01*
X170664951Y-94780445D02*
X170745764Y-94915132D01*
X170745764Y-94915132D02*
X170826576Y-94995944D01*
X170826576Y-94995944D02*
X170961263Y-95076756D01*
X170961263Y-95076756D02*
X171042075Y-95103693D01*
X171042075Y-95103693D02*
X171149825Y-95103693D01*
X171149825Y-95103693D02*
X171257574Y-95049819D01*
X171257574Y-95049819D02*
X171311449Y-94995944D01*
X171311449Y-94995944D02*
X171365324Y-94888194D01*
X171365324Y-94888194D02*
X171365324Y-94834319D01*
X171365324Y-94834319D02*
X171176762Y-94645758D01*
X171176762Y-94645758D02*
X171069012Y-94753507D01*
X171661635Y-94645758D02*
X171095950Y-94080072D01*
X171095950Y-94080072D02*
X171311449Y-93864573D01*
X171311449Y-93864573D02*
X171392261Y-93837636D01*
X171392261Y-93837636D02*
X171446136Y-93837636D01*
X171446136Y-93837636D02*
X171526948Y-93864573D01*
X171526948Y-93864573D02*
X171607760Y-93945385D01*
X171607760Y-93945385D02*
X171634698Y-94026197D01*
X171634698Y-94026197D02*
X171634698Y-94080072D01*
X171634698Y-94080072D02*
X171607760Y-94160884D01*
X171607760Y-94160884D02*
X171392261Y-94376384D01*
X171688573Y-93595199D02*
X171688573Y-93541324D01*
X171688573Y-93541324D02*
X171715510Y-93460512D01*
X171715510Y-93460512D02*
X171850197Y-93325825D01*
X171850197Y-93325825D02*
X171931009Y-93298887D01*
X171931009Y-93298887D02*
X171984884Y-93298887D01*
X171984884Y-93298887D02*
X172065696Y-93325825D01*
X172065696Y-93325825D02*
X172119571Y-93379700D01*
X172119571Y-93379700D02*
X172173446Y-93487449D01*
X172173446Y-93487449D02*
X172173446Y-94133947D01*
X172173446Y-94133947D02*
X172523632Y-93783761D01*
X172227321Y-93056451D02*
X172227321Y-93002576D01*
X172227321Y-93002576D02*
X172254258Y-92921764D01*
X172254258Y-92921764D02*
X172388945Y-92787077D01*
X172388945Y-92787077D02*
X172469757Y-92760139D01*
X172469757Y-92760139D02*
X172523632Y-92760139D01*
X172523632Y-92760139D02*
X172604444Y-92787077D01*
X172604444Y-92787077D02*
X172658319Y-92840951D01*
X172658319Y-92840951D02*
X172712194Y-92948701D01*
X172712194Y-92948701D02*
X172712194Y-93595199D01*
X172712194Y-93595199D02*
X173062380Y-93245013D01*
X145241950Y-96673946D02*
X145161138Y-96700884D01*
X145161138Y-96700884D02*
X145080326Y-96781696D01*
X145080326Y-96781696D02*
X145026451Y-96889446D01*
X145026451Y-96889446D02*
X145026451Y-96997195D01*
X145026451Y-96997195D02*
X145053389Y-97078007D01*
X145053389Y-97078007D02*
X145134201Y-97212694D01*
X145134201Y-97212694D02*
X145215013Y-97293507D01*
X145215013Y-97293507D02*
X145349700Y-97374319D01*
X145349700Y-97374319D02*
X145430512Y-97401256D01*
X145430512Y-97401256D02*
X145538262Y-97401256D01*
X145538262Y-97401256D02*
X145646011Y-97347381D01*
X145646011Y-97347381D02*
X145699886Y-97293507D01*
X145699886Y-97293507D02*
X145753761Y-97185757D01*
X145753761Y-97185757D02*
X145753761Y-97131882D01*
X145753761Y-97131882D02*
X145565199Y-96943320D01*
X145565199Y-96943320D02*
X145457450Y-97051070D01*
X146050072Y-96943320D02*
X145484387Y-96377635D01*
X145484387Y-96377635D02*
X146373321Y-96620072D01*
X146373321Y-96620072D02*
X145807636Y-96054386D01*
X146642695Y-96350698D02*
X146077010Y-95785012D01*
X146077010Y-95785012D02*
X146211697Y-95650325D01*
X146211697Y-95650325D02*
X146319446Y-95596450D01*
X146319446Y-95596450D02*
X146427196Y-95596450D01*
X146427196Y-95596450D02*
X146508008Y-95623388D01*
X146508008Y-95623388D02*
X146642695Y-95704200D01*
X146642695Y-95704200D02*
X146723507Y-95785012D01*
X146723507Y-95785012D02*
X146804319Y-95919699D01*
X146804319Y-95919699D02*
X146831257Y-96000511D01*
X146831257Y-96000511D02*
X146831257Y-96108261D01*
X146831257Y-96108261D02*
X146777382Y-96216011D01*
X146777382Y-96216011D02*
X146642695Y-96350698D01*
X144699513Y-112156384D02*
X144618701Y-112183321D01*
X144618701Y-112183321D02*
X144537889Y-112264133D01*
X144537889Y-112264133D02*
X144484014Y-112371883D01*
X144484014Y-112371883D02*
X144484014Y-112479632D01*
X144484014Y-112479632D02*
X144510951Y-112560445D01*
X144510951Y-112560445D02*
X144591764Y-112695132D01*
X144591764Y-112695132D02*
X144672576Y-112775944D01*
X144672576Y-112775944D02*
X144807263Y-112856756D01*
X144807263Y-112856756D02*
X144888075Y-112883693D01*
X144888075Y-112883693D02*
X144995825Y-112883693D01*
X144995825Y-112883693D02*
X145103574Y-112829819D01*
X145103574Y-112829819D02*
X145157449Y-112775944D01*
X145157449Y-112775944D02*
X145211324Y-112668194D01*
X145211324Y-112668194D02*
X145211324Y-112614319D01*
X145211324Y-112614319D02*
X145022762Y-112425758D01*
X145022762Y-112425758D02*
X144915012Y-112533507D01*
X145507635Y-112425758D02*
X144941950Y-111860072D01*
X144941950Y-111860072D02*
X145157449Y-111644573D01*
X145157449Y-111644573D02*
X145238261Y-111617636D01*
X145238261Y-111617636D02*
X145292136Y-111617636D01*
X145292136Y-111617636D02*
X145372948Y-111644573D01*
X145372948Y-111644573D02*
X145453760Y-111725385D01*
X145453760Y-111725385D02*
X145480698Y-111806197D01*
X145480698Y-111806197D02*
X145480698Y-111860072D01*
X145480698Y-111860072D02*
X145453760Y-111940884D01*
X145453760Y-111940884D02*
X145238261Y-112156384D01*
X146369632Y-111563761D02*
X146046383Y-111887010D01*
X146208008Y-111725385D02*
X145642322Y-111159700D01*
X145642322Y-111159700D02*
X145669260Y-111294387D01*
X145669260Y-111294387D02*
X145669260Y-111402136D01*
X145669260Y-111402136D02*
X145642322Y-111482948D01*
X146477382Y-110701764D02*
X146854505Y-111078887D01*
X146127196Y-110620951D02*
X146396570Y-111159700D01*
X146396570Y-111159700D02*
X146746756Y-110809513D01*
X170676265Y-69245757D02*
X171430512Y-69622881D01*
X171430512Y-69622881D02*
X171053388Y-68868634D01*
X171753760Y-69245758D02*
X171861510Y-69191883D01*
X171861510Y-69191883D02*
X171996197Y-69057196D01*
X171996197Y-69057196D02*
X172023134Y-68976384D01*
X172023134Y-68976384D02*
X172023134Y-68922509D01*
X172023134Y-68922509D02*
X171996197Y-68841697D01*
X171996197Y-68841697D02*
X171942322Y-68787822D01*
X171942322Y-68787822D02*
X171861510Y-68760884D01*
X171861510Y-68760884D02*
X171807635Y-68760884D01*
X171807635Y-68760884D02*
X171726823Y-68787822D01*
X171726823Y-68787822D02*
X171592136Y-68868634D01*
X171592136Y-68868634D02*
X171511324Y-68895571D01*
X171511324Y-68895571D02*
X171457449Y-68895571D01*
X171457449Y-68895571D02*
X171376637Y-68868634D01*
X171376637Y-68868634D02*
X171322762Y-68814759D01*
X171322762Y-68814759D02*
X171295825Y-68733947D01*
X171295825Y-68733947D02*
X171295825Y-68680072D01*
X171295825Y-68680072D02*
X171322762Y-68599260D01*
X171322762Y-68599260D02*
X171457449Y-68464573D01*
X171457449Y-68464573D02*
X171565199Y-68410698D01*
X172184759Y-68329886D02*
X172454133Y-68599260D01*
X171699886Y-68222136D02*
X172184759Y-68329886D01*
X172184759Y-68329886D02*
X172077009Y-67845013D01*
X172777382Y-68222136D02*
X172885131Y-68168262D01*
X172885131Y-68168262D02*
X173019818Y-68033575D01*
X173019818Y-68033575D02*
X173046756Y-67952762D01*
X173046756Y-67952762D02*
X173046756Y-67898888D01*
X173046756Y-67898888D02*
X173019818Y-67818075D01*
X173019818Y-67818075D02*
X172965943Y-67764201D01*
X172965943Y-67764201D02*
X172885131Y-67737263D01*
X172885131Y-67737263D02*
X172831256Y-67737263D01*
X172831256Y-67737263D02*
X172750444Y-67764201D01*
X172750444Y-67764201D02*
X172615757Y-67845013D01*
X172615757Y-67845013D02*
X172534945Y-67871950D01*
X172534945Y-67871950D02*
X172481070Y-67871950D01*
X172481070Y-67871950D02*
X172400258Y-67845013D01*
X172400258Y-67845013D02*
X172346383Y-67791138D01*
X172346383Y-67791138D02*
X172319446Y-67710326D01*
X172319446Y-67710326D02*
X172319446Y-67656451D01*
X172319446Y-67656451D02*
X172346383Y-67575639D01*
X172346383Y-67575639D02*
X172481070Y-67440952D01*
X172481070Y-67440952D02*
X172588820Y-67387077D01*
X144599513Y-104536384D02*
X144518701Y-104563321D01*
X144518701Y-104563321D02*
X144437889Y-104644133D01*
X144437889Y-104644133D02*
X144384014Y-104751883D01*
X144384014Y-104751883D02*
X144384014Y-104859632D01*
X144384014Y-104859632D02*
X144410951Y-104940445D01*
X144410951Y-104940445D02*
X144491764Y-105075132D01*
X144491764Y-105075132D02*
X144572576Y-105155944D01*
X144572576Y-105155944D02*
X144707263Y-105236756D01*
X144707263Y-105236756D02*
X144788075Y-105263693D01*
X144788075Y-105263693D02*
X144895825Y-105263693D01*
X144895825Y-105263693D02*
X145003574Y-105209819D01*
X145003574Y-105209819D02*
X145057449Y-105155944D01*
X145057449Y-105155944D02*
X145111324Y-105048194D01*
X145111324Y-105048194D02*
X145111324Y-104994319D01*
X145111324Y-104994319D02*
X144922762Y-104805758D01*
X144922762Y-104805758D02*
X144815012Y-104913507D01*
X145407635Y-104805758D02*
X144841950Y-104240072D01*
X144841950Y-104240072D02*
X145057449Y-104024573D01*
X145057449Y-104024573D02*
X145138261Y-103997636D01*
X145138261Y-103997636D02*
X145192136Y-103997636D01*
X145192136Y-103997636D02*
X145272948Y-104024573D01*
X145272948Y-104024573D02*
X145353760Y-104105385D01*
X145353760Y-104105385D02*
X145380698Y-104186197D01*
X145380698Y-104186197D02*
X145380698Y-104240072D01*
X145380698Y-104240072D02*
X145353760Y-104320884D01*
X145353760Y-104320884D02*
X145138261Y-104536384D01*
X146269632Y-103943761D02*
X145946383Y-104267010D01*
X146108008Y-104105385D02*
X145542322Y-103539700D01*
X145542322Y-103539700D02*
X145569260Y-103674387D01*
X145569260Y-103674387D02*
X145569260Y-103782136D01*
X145569260Y-103782136D02*
X145542322Y-103862948D01*
X145973321Y-103216451D02*
X145973321Y-103162576D01*
X145973321Y-103162576D02*
X146000258Y-103081764D01*
X146000258Y-103081764D02*
X146134945Y-102947077D01*
X146134945Y-102947077D02*
X146215757Y-102920139D01*
X146215757Y-102920139D02*
X146269632Y-102920139D01*
X146269632Y-102920139D02*
X146350444Y-102947077D01*
X146350444Y-102947077D02*
X146404319Y-103000951D01*
X146404319Y-103000951D02*
X146458194Y-103108701D01*
X146458194Y-103108701D02*
X146458194Y-103755199D01*
X146458194Y-103755199D02*
X146808380Y-103405013D01*
X145168888Y-68697009D02*
X145088075Y-68723946D01*
X145088075Y-68723946D02*
X145007263Y-68804759D01*
X145007263Y-68804759D02*
X144953388Y-68912508D01*
X144953388Y-68912508D02*
X144953388Y-69020258D01*
X144953388Y-69020258D02*
X144980326Y-69101070D01*
X144980326Y-69101070D02*
X145061138Y-69235757D01*
X145061138Y-69235757D02*
X145141950Y-69316569D01*
X145141950Y-69316569D02*
X145276637Y-69397382D01*
X145276637Y-69397382D02*
X145357449Y-69424319D01*
X145357449Y-69424319D02*
X145465199Y-69424319D01*
X145465199Y-69424319D02*
X145572949Y-69370444D01*
X145572949Y-69370444D02*
X145626823Y-69316569D01*
X145626823Y-69316569D02*
X145680698Y-69208820D01*
X145680698Y-69208820D02*
X145680698Y-69154945D01*
X145680698Y-69154945D02*
X145492136Y-68966383D01*
X145492136Y-68966383D02*
X145384387Y-69074133D01*
X145977010Y-68966383D02*
X145411324Y-68400698D01*
X145411324Y-68400698D02*
X145626823Y-68185198D01*
X145626823Y-68185198D02*
X145707636Y-68158261D01*
X145707636Y-68158261D02*
X145761510Y-68158261D01*
X145761510Y-68158261D02*
X145842323Y-68185198D01*
X145842323Y-68185198D02*
X145923135Y-68266011D01*
X145923135Y-68266011D02*
X145950072Y-68346823D01*
X145950072Y-68346823D02*
X145950072Y-68400698D01*
X145950072Y-68400698D02*
X145923135Y-68481510D01*
X145923135Y-68481510D02*
X145707636Y-68697009D01*
X146839006Y-68104386D02*
X146515758Y-68427635D01*
X146677382Y-68266011D02*
X146111697Y-67700325D01*
X146111697Y-67700325D02*
X146138634Y-67835012D01*
X146138634Y-67835012D02*
X146138634Y-67942762D01*
X146138634Y-67942762D02*
X146111697Y-68023574D01*
X144745513Y-99456384D02*
X144664701Y-99483321D01*
X144664701Y-99483321D02*
X144583889Y-99564133D01*
X144583889Y-99564133D02*
X144530014Y-99671883D01*
X144530014Y-99671883D02*
X144530014Y-99779632D01*
X144530014Y-99779632D02*
X144556951Y-99860445D01*
X144556951Y-99860445D02*
X144637764Y-99995132D01*
X144637764Y-99995132D02*
X144718576Y-100075944D01*
X144718576Y-100075944D02*
X144853263Y-100156756D01*
X144853263Y-100156756D02*
X144934075Y-100183693D01*
X144934075Y-100183693D02*
X145041825Y-100183693D01*
X145041825Y-100183693D02*
X145149574Y-100129819D01*
X145149574Y-100129819D02*
X145203449Y-100075944D01*
X145203449Y-100075944D02*
X145257324Y-99968194D01*
X145257324Y-99968194D02*
X145257324Y-99914319D01*
X145257324Y-99914319D02*
X145068762Y-99725758D01*
X145068762Y-99725758D02*
X144961012Y-99833507D01*
X145553635Y-99725758D02*
X144987950Y-99160072D01*
X144987950Y-99160072D02*
X145203449Y-98944573D01*
X145203449Y-98944573D02*
X145284261Y-98917636D01*
X145284261Y-98917636D02*
X145338136Y-98917636D01*
X145338136Y-98917636D02*
X145418948Y-98944573D01*
X145418948Y-98944573D02*
X145499760Y-99025385D01*
X145499760Y-99025385D02*
X145526698Y-99106197D01*
X145526698Y-99106197D02*
X145526698Y-99160072D01*
X145526698Y-99160072D02*
X145499760Y-99240884D01*
X145499760Y-99240884D02*
X145284261Y-99456384D01*
X146415632Y-98863761D02*
X146092383Y-99187010D01*
X146254008Y-99025385D02*
X145688322Y-98459700D01*
X145688322Y-98459700D02*
X145715260Y-98594387D01*
X145715260Y-98594387D02*
X145715260Y-98702136D01*
X145715260Y-98702136D02*
X145688322Y-98782948D01*
X146200133Y-97947889D02*
X146254008Y-97894014D01*
X146254008Y-97894014D02*
X146334820Y-97867077D01*
X146334820Y-97867077D02*
X146388695Y-97867077D01*
X146388695Y-97867077D02*
X146469507Y-97894014D01*
X146469507Y-97894014D02*
X146604194Y-97974826D01*
X146604194Y-97974826D02*
X146738881Y-98109513D01*
X146738881Y-98109513D02*
X146819693Y-98244200D01*
X146819693Y-98244200D02*
X146846631Y-98325013D01*
X146846631Y-98325013D02*
X146846631Y-98378887D01*
X146846631Y-98378887D02*
X146819693Y-98459700D01*
X146819693Y-98459700D02*
X146765818Y-98513574D01*
X146765818Y-98513574D02*
X146685006Y-98540512D01*
X146685006Y-98540512D02*
X146631131Y-98540512D01*
X146631131Y-98540512D02*
X146550319Y-98513574D01*
X146550319Y-98513574D02*
X146415632Y-98432762D01*
X146415632Y-98432762D02*
X146280945Y-98298075D01*
X146280945Y-98298075D02*
X146200133Y-98163388D01*
X146200133Y-98163388D02*
X146173196Y-98082576D01*
X146173196Y-98082576D02*
X146173196Y-98028701D01*
X146173196Y-98028701D02*
X146200133Y-97947889D01*
X171594167Y-92119226D02*
X171136231Y-92038414D01*
X171270918Y-92442475D02*
X170705233Y-91876789D01*
X170705233Y-91876789D02*
X170920732Y-91661290D01*
X170920732Y-91661290D02*
X171001544Y-91634353D01*
X171001544Y-91634353D02*
X171055419Y-91634353D01*
X171055419Y-91634353D02*
X171136231Y-91661290D01*
X171136231Y-91661290D02*
X171217043Y-91742102D01*
X171217043Y-91742102D02*
X171243981Y-91822914D01*
X171243981Y-91822914D02*
X171243981Y-91876789D01*
X171243981Y-91876789D02*
X171217043Y-91957601D01*
X171217043Y-91957601D02*
X171001544Y-92173101D01*
X171270918Y-91311104D02*
X171728854Y-91769040D01*
X171728854Y-91769040D02*
X171809666Y-91795977D01*
X171809666Y-91795977D02*
X171863541Y-91795977D01*
X171863541Y-91795977D02*
X171944353Y-91769040D01*
X171944353Y-91769040D02*
X172052103Y-91661290D01*
X172052103Y-91661290D02*
X172079040Y-91580478D01*
X172079040Y-91580478D02*
X172079040Y-91526603D01*
X172079040Y-91526603D02*
X172052103Y-91445791D01*
X172052103Y-91445791D02*
X171594167Y-90987855D01*
X172429226Y-91284167D02*
X171863541Y-90718481D01*
X171863541Y-90718481D02*
X172752475Y-90960918D01*
X172752475Y-90960918D02*
X172186789Y-90395232D01*
X170853513Y-86766384D02*
X170772701Y-86793321D01*
X170772701Y-86793321D02*
X170691889Y-86874133D01*
X170691889Y-86874133D02*
X170638014Y-86981883D01*
X170638014Y-86981883D02*
X170638014Y-87089632D01*
X170638014Y-87089632D02*
X170664951Y-87170445D01*
X170664951Y-87170445D02*
X170745764Y-87305132D01*
X170745764Y-87305132D02*
X170826576Y-87385944D01*
X170826576Y-87385944D02*
X170961263Y-87466756D01*
X170961263Y-87466756D02*
X171042075Y-87493693D01*
X171042075Y-87493693D02*
X171149825Y-87493693D01*
X171149825Y-87493693D02*
X171257574Y-87439819D01*
X171257574Y-87439819D02*
X171311449Y-87385944D01*
X171311449Y-87385944D02*
X171365324Y-87278194D01*
X171365324Y-87278194D02*
X171365324Y-87224319D01*
X171365324Y-87224319D02*
X171176762Y-87035758D01*
X171176762Y-87035758D02*
X171069012Y-87143507D01*
X171661635Y-87035758D02*
X171095950Y-86470072D01*
X171095950Y-86470072D02*
X171311449Y-86254573D01*
X171311449Y-86254573D02*
X171392261Y-86227636D01*
X171392261Y-86227636D02*
X171446136Y-86227636D01*
X171446136Y-86227636D02*
X171526948Y-86254573D01*
X171526948Y-86254573D02*
X171607760Y-86335385D01*
X171607760Y-86335385D02*
X171634698Y-86416197D01*
X171634698Y-86416197D02*
X171634698Y-86470072D01*
X171634698Y-86470072D02*
X171607760Y-86550884D01*
X171607760Y-86550884D02*
X171392261Y-86766384D01*
X171688573Y-85985199D02*
X171688573Y-85931324D01*
X171688573Y-85931324D02*
X171715510Y-85850512D01*
X171715510Y-85850512D02*
X171850197Y-85715825D01*
X171850197Y-85715825D02*
X171931009Y-85688887D01*
X171931009Y-85688887D02*
X171984884Y-85688887D01*
X171984884Y-85688887D02*
X172065696Y-85715825D01*
X172065696Y-85715825D02*
X172119571Y-85769700D01*
X172119571Y-85769700D02*
X172173446Y-85877449D01*
X172173446Y-85877449D02*
X172173446Y-86523947D01*
X172173446Y-86523947D02*
X172523632Y-86173761D01*
X172146509Y-85419513D02*
X172523632Y-85042390D01*
X172523632Y-85042390D02*
X172846881Y-85850512D01*
%TO.C,U3*%
X126672619Y-46481904D02*
X127482142Y-46481904D01*
X127482142Y-46481904D02*
X127577380Y-46434285D01*
X127577380Y-46434285D02*
X127625000Y-46386666D01*
X127625000Y-46386666D02*
X127672619Y-46291428D01*
X127672619Y-46291428D02*
X127672619Y-46100952D01*
X127672619Y-46100952D02*
X127625000Y-46005714D01*
X127625000Y-46005714D02*
X127577380Y-45958095D01*
X127577380Y-45958095D02*
X127482142Y-45910476D01*
X127482142Y-45910476D02*
X126672619Y-45910476D01*
X126672619Y-45529523D02*
X126672619Y-44910476D01*
X126672619Y-44910476D02*
X127053571Y-45243809D01*
X127053571Y-45243809D02*
X127053571Y-45100952D01*
X127053571Y-45100952D02*
X127101190Y-45005714D01*
X127101190Y-45005714D02*
X127148809Y-44958095D01*
X127148809Y-44958095D02*
X127244047Y-44910476D01*
X127244047Y-44910476D02*
X127482142Y-44910476D01*
X127482142Y-44910476D02*
X127577380Y-44958095D01*
X127577380Y-44958095D02*
X127625000Y-45005714D01*
X127625000Y-45005714D02*
X127672619Y-45100952D01*
X127672619Y-45100952D02*
X127672619Y-45386666D01*
X127672619Y-45386666D02*
X127625000Y-45481904D01*
X127625000Y-45481904D02*
X127577380Y-45529523D01*
%TO.C,U4*%
X118618095Y-116092619D02*
X118618095Y-116902142D01*
X118618095Y-116902142D02*
X118665714Y-116997380D01*
X118665714Y-116997380D02*
X118713333Y-117045000D01*
X118713333Y-117045000D02*
X118808571Y-117092619D01*
X118808571Y-117092619D02*
X118999047Y-117092619D01*
X118999047Y-117092619D02*
X119094285Y-117045000D01*
X119094285Y-117045000D02*
X119141904Y-116997380D01*
X119141904Y-116997380D02*
X119189523Y-116902142D01*
X119189523Y-116902142D02*
X119189523Y-116092619D01*
X120094285Y-116425952D02*
X120094285Y-117092619D01*
X119856190Y-116045000D02*
X119618095Y-116759285D01*
X119618095Y-116759285D02*
X120237142Y-116759285D01*
%TO.C,U2*%
X157152619Y-46481904D02*
X157962142Y-46481904D01*
X157962142Y-46481904D02*
X158057380Y-46434285D01*
X158057380Y-46434285D02*
X158105000Y-46386666D01*
X158105000Y-46386666D02*
X158152619Y-46291428D01*
X158152619Y-46291428D02*
X158152619Y-46100952D01*
X158152619Y-46100952D02*
X158105000Y-46005714D01*
X158105000Y-46005714D02*
X158057380Y-45958095D01*
X158057380Y-45958095D02*
X157962142Y-45910476D01*
X157962142Y-45910476D02*
X157152619Y-45910476D01*
X157247857Y-45481904D02*
X157200238Y-45434285D01*
X157200238Y-45434285D02*
X157152619Y-45339047D01*
X157152619Y-45339047D02*
X157152619Y-45100952D01*
X157152619Y-45100952D02*
X157200238Y-45005714D01*
X157200238Y-45005714D02*
X157247857Y-44958095D01*
X157247857Y-44958095D02*
X157343095Y-44910476D01*
X157343095Y-44910476D02*
X157438333Y-44910476D01*
X157438333Y-44910476D02*
X157581190Y-44958095D01*
X157581190Y-44958095D02*
X158152619Y-45529523D01*
X158152619Y-45529523D02*
X158152619Y-44910476D01*
%TO.C,U1*%
X120702619Y-71881904D02*
X121512142Y-71881904D01*
X121512142Y-71881904D02*
X121607380Y-71834285D01*
X121607380Y-71834285D02*
X121655000Y-71786666D01*
X121655000Y-71786666D02*
X121702619Y-71691428D01*
X121702619Y-71691428D02*
X121702619Y-71500952D01*
X121702619Y-71500952D02*
X121655000Y-71405714D01*
X121655000Y-71405714D02*
X121607380Y-71358095D01*
X121607380Y-71358095D02*
X121512142Y-71310476D01*
X121512142Y-71310476D02*
X120702619Y-71310476D01*
X121702619Y-70310476D02*
X121702619Y-70881904D01*
X121702619Y-70596190D02*
X120702619Y-70596190D01*
X120702619Y-70596190D02*
X120845476Y-70691428D01*
X120845476Y-70691428D02*
X120940714Y-70786666D01*
X120940714Y-70786666D02*
X120988333Y-70881904D01*
D11*
%TO.C,J1*%
X201935000Y-74730000D02*
X201899000Y-74695000D01*
X198060000Y-65980000D02*
X198060000Y-76260000D01*
X205921000Y-76260000D02*
X196000000Y-76260000D01*
X196000000Y-65980000D02*
X196000000Y-76260000D01*
X202961000Y-65980000D02*
X202961000Y-76260000D01*
X195760000Y-65740000D02*
X195760000Y-66240000D01*
X199421000Y-72626000D02*
X199386000Y-72591000D01*
X201729000Y-74935000D02*
X201683000Y-74888000D01*
X196560000Y-65980000D02*
X196560000Y-76260000D01*
X196500000Y-65740000D02*
X195760000Y-65740000D01*
X199637000Y-72433000D02*
X199591000Y-72386000D01*
X205921000Y-65980000D02*
X196000000Y-65980000D01*
X205921000Y-65980000D02*
X205921000Y-76260000D01*
X199125001Y-67896000D02*
G75*
G03*
X198979748Y-68608805I1535000J-683999D01*
G01*
X198980001Y-68580000D02*
G75*
G03*
X199125245Y-69263318I1679999J0D01*
G01*
X202194999Y-69263999D02*
G75*
G03*
X202195426Y-67896958I-1534992J684000D01*
G01*
X201343999Y-67045001D02*
G75*
G03*
X199976958Y-67044574I-684000J-1534992D01*
G01*
X199976000Y-70115000D02*
G75*
G03*
X201343042Y-70115426I684000J1535000D01*
G01*
X202340000Y-73660000D02*
G75*
G03*
X202340000Y-73660000I-1680000J0D01*
G01*
%TO.C,U5*%
X148250000Y-64670000D02*
X148250000Y-64970000D01*
X148250000Y-64670000D02*
X169250000Y-64670000D01*
X148250000Y-67070000D02*
X148250000Y-67470000D01*
X148250000Y-67337000D02*
X151257000Y-67337000D01*
X148250000Y-69670000D02*
X148250000Y-70070000D01*
X148250000Y-72170000D02*
X148250000Y-72570000D01*
X148250000Y-74770000D02*
X148250000Y-75170000D01*
X148250000Y-77270000D02*
X148250000Y-77670000D01*
X148250000Y-79770000D02*
X148250000Y-80170000D01*
X148250000Y-82370000D02*
X148250000Y-82770000D01*
X148250000Y-84870000D02*
X148250000Y-85270000D01*
X148250000Y-87470000D02*
X148250000Y-87870000D01*
X148250000Y-89970000D02*
X148250000Y-90370000D01*
X148250000Y-92470000D02*
X148250000Y-92870000D01*
X148250000Y-95070000D02*
X148250000Y-95470000D01*
X148250000Y-97570000D02*
X148250000Y-97970000D01*
X148250000Y-100170000D02*
X148250000Y-100570000D01*
X148250000Y-102670000D02*
X148250000Y-103070000D01*
X148250000Y-105270000D02*
X148250000Y-105670000D01*
X148250000Y-107770000D02*
X148250000Y-108170000D01*
X148250000Y-110270000D02*
X148250000Y-110670000D01*
X148250000Y-112870000D02*
X148250000Y-113270000D01*
X151257000Y-67337000D02*
X151257000Y-64670000D01*
X155050000Y-115670000D02*
X148250000Y-115670000D01*
X157250000Y-115670000D02*
X157650000Y-115670000D01*
X159850000Y-115670000D02*
X160250000Y-115670000D01*
X169250000Y-64670000D02*
X169250000Y-64970000D01*
X169250000Y-67070000D02*
X169250000Y-67470000D01*
X169250000Y-69670000D02*
X169250000Y-70070000D01*
X169250000Y-72170000D02*
X169250000Y-72570000D01*
X169250000Y-74770000D02*
X169250000Y-75170000D01*
X169250000Y-77270000D02*
X169250000Y-77670000D01*
X169250000Y-79770000D02*
X169250000Y-80170000D01*
X169250000Y-82370000D02*
X169250000Y-82770000D01*
X169250000Y-84870000D02*
X169250000Y-85270000D01*
X169250000Y-87470000D02*
X169250000Y-87870000D01*
X169250000Y-89970000D02*
X169250000Y-90370000D01*
X169250000Y-92470000D02*
X169250000Y-92870000D01*
X169250000Y-95070000D02*
X169250000Y-95470000D01*
X169250000Y-97570000D02*
X169250000Y-97970000D01*
X169250000Y-100170000D02*
X169250000Y-100570000D01*
X169250000Y-102670000D02*
X169250000Y-103070000D01*
X169250000Y-105270000D02*
X169250000Y-105670000D01*
X169250000Y-107770000D02*
X169250000Y-108170000D01*
X169250000Y-110270000D02*
X169250000Y-110670000D01*
X169250000Y-112870000D02*
X169250000Y-113270000D01*
X169250000Y-115670000D02*
X162450000Y-115670000D01*
%TO.C,U3*%
X128210000Y-47050000D02*
X128210000Y-45720000D01*
X129540000Y-47050000D02*
X128210000Y-47050000D01*
X130810000Y-47050000D02*
X143570000Y-47050000D01*
X130810000Y-47050000D02*
X130810000Y-44390000D01*
X143570000Y-47050000D02*
X143570000Y-44390000D01*
X130810000Y-44390000D02*
X143570000Y-44390000D01*
%TO.C,U4*%
X120710000Y-115630000D02*
X119380000Y-115630000D01*
X120710000Y-114300000D02*
X120710000Y-115630000D01*
X120710000Y-113030000D02*
X120710000Y-100270000D01*
X120710000Y-113030000D02*
X118050000Y-113030000D01*
X120710000Y-100270000D02*
X118050000Y-100270000D01*
X118050000Y-113030000D02*
X118050000Y-100270000D01*
%TO.C,U2*%
X158690000Y-47050000D02*
X158690000Y-45720000D01*
X160020000Y-47050000D02*
X158690000Y-47050000D01*
X161290000Y-47050000D02*
X171510000Y-47050000D01*
X161290000Y-47050000D02*
X161290000Y-44390000D01*
X171510000Y-47050000D02*
X171510000Y-44390000D01*
X161290000Y-44390000D02*
X171510000Y-44390000D01*
%TO.C,U1*%
X118220000Y-64660000D02*
X118220000Y-77580000D01*
X112920000Y-64660000D02*
X118220000Y-64660000D01*
X118220000Y-77580000D02*
X112920000Y-77580000D01*
X112920000Y-77580000D02*
X112920000Y-64660000D01*
%TD*%
M02*
