%TF.GenerationSoftware,KiCad,Pcbnew,7.0.1*%
%TF.CreationDate,2023-04-18T18:49:40-05:00*%
%TF.ProjectId,pcb_design,7063625f-6465-4736-9967-6e2e6b696361,rev?*%
%TF.SameCoordinates,Original*%
%TF.FileFunction,Copper,L1,Top*%
%TF.FilePolarity,Positive*%
%FSLAX46Y46*%
G04 Gerber Fmt 4.6, Leading zero omitted, Abs format (unit mm)*
G04 Created by KiCad (PCBNEW 7.0.1) date 2023-04-18 18:49:40*
%MOMM*%
%LPD*%
G01*
G04 APERTURE LIST*
G04 Aperture macros list*
%AMRoundRect*
0 Rectangle with rounded corners*
0 $1 Rounding radius*
0 $2 $3 $4 $5 $6 $7 $8 $9 X,Y pos of 4 corners*
0 Add a 4 corners polygon primitive as box body*
4,1,4,$2,$3,$4,$5,$6,$7,$8,$9,$2,$3,0*
0 Add four circle primitives for the rounded corners*
1,1,$1+$1,$2,$3*
1,1,$1+$1,$4,$5*
1,1,$1+$1,$6,$7*
1,1,$1+$1,$8,$9*
0 Add four rect primitives between the rounded corners*
20,1,$1+$1,$2,$3,$4,$5,0*
20,1,$1+$1,$4,$5,$6,$7,0*
20,1,$1+$1,$6,$7,$8,$9,0*
20,1,$1+$1,$8,$9,$2,$3,0*%
G04 Aperture macros list end*
%TA.AperFunction,ComponentPad*%
%ADD10R,2.600000X2.600000*%
%TD*%
%TA.AperFunction,ComponentPad*%
%ADD11C,2.600000*%
%TD*%
%TA.AperFunction,ComponentPad*%
%ADD12O,1.700000X1.700000*%
%TD*%
%TA.AperFunction,SMDPad,CuDef*%
%ADD13R,3.500000X1.700000*%
%TD*%
%TA.AperFunction,ComponentPad*%
%ADD14R,1.700000X1.700000*%
%TD*%
%TA.AperFunction,SMDPad,CuDef*%
%ADD15R,1.700000X3.500000*%
%TD*%
%TA.AperFunction,ComponentPad*%
%ADD16RoundRect,0.250000X-0.405000X0.405000X-0.405000X-0.405000X0.405000X-0.405000X0.405000X0.405000X0*%
%TD*%
%TA.AperFunction,ComponentPad*%
%ADD17C,1.310000*%
%TD*%
%TA.AperFunction,Conductor*%
%ADD18C,0.250000*%
%TD*%
G04 APERTURE END LIST*
D10*
%TO.P,J1,1,Pin_1*%
%TO.N,Net-(J1-Pin_1)*%
X200660000Y-68580000D03*
D11*
%TO.P,J1,2,Pin_2*%
%TO.N,Net-(J1-Pin_2)*%
X200660000Y-73660000D03*
%TD*%
D12*
%TO.P,U5,1,GPIO0*%
%TO.N,Net-(U1-SDA)*%
X149860000Y-66040000D03*
D13*
X148960000Y-66040000D03*
D12*
%TO.P,U5,2,GPIO1*%
%TO.N,Net-(U1-SCL)*%
X149860000Y-68580000D03*
D13*
X148960000Y-68580000D03*
D14*
%TO.P,U5,3,GND*%
%TO.N,unconnected-(U5-GND-Pad3)*%
X149860000Y-71120000D03*
D13*
X148960000Y-71120000D03*
D12*
%TO.P,U5,4,GPIO2*%
%TO.N,Net-(U1-RST)*%
X149860000Y-73660000D03*
D13*
X148960000Y-73660000D03*
D12*
%TO.P,U5,5,GPIO3*%
%TO.N,unconnected-(U5-GPIO3-Pad5)*%
X149860000Y-76200000D03*
D13*
X148960000Y-76200000D03*
D12*
%TO.P,U5,6,GPIO4*%
%TO.N,Net-(U3-TXD)*%
X149860000Y-78740000D03*
D13*
X148960000Y-78740000D03*
D12*
%TO.P,U5,7,GPIO5*%
%TO.N,Net-(U3-RXD)*%
X149860000Y-81280000D03*
D13*
X148960000Y-81280000D03*
D14*
%TO.P,U5,8,GND*%
%TO.N,Net-(U1-GND)*%
X149860000Y-83820000D03*
D13*
X148960000Y-83820000D03*
D12*
%TO.P,U5,9,GPIO6*%
%TO.N,unconnected-(U5-GPIO6-Pad9)*%
X149860000Y-86360000D03*
D13*
X148960000Y-86360000D03*
D12*
%TO.P,U5,10,GPIO7*%
%TO.N,unconnected-(U5-GPIO7-Pad10)*%
X149860000Y-88900000D03*
D13*
X148960000Y-88900000D03*
D12*
%TO.P,U5,11,GPIO8*%
%TO.N,unconnected-(U5-GPIO8-Pad11)*%
X149860000Y-91440000D03*
D13*
X148960000Y-91440000D03*
D12*
%TO.P,U5,12,GPIO9*%
%TO.N,unconnected-(U5-GPIO9-Pad12)*%
X149860000Y-93980000D03*
D13*
X148960000Y-93980000D03*
D14*
%TO.P,U5,13,GND*%
%TO.N,Net-(U4-GND)*%
X149860000Y-96520000D03*
D13*
X148960000Y-96520000D03*
D12*
%TO.P,U5,14,GPIO10*%
%TO.N,unconnected-(U5-GPIO10-Pad14)*%
X149860000Y-99060000D03*
D13*
X148960000Y-99060000D03*
D12*
%TO.P,U5,15,GPIO11*%
%TO.N,unconnected-(U5-GPIO11-Pad15)*%
X149860000Y-101600000D03*
D13*
X148960000Y-101600000D03*
D12*
%TO.P,U5,16,GPIO12*%
%TO.N,Net-(U4-MISO)*%
X149860000Y-104140000D03*
D13*
X148960000Y-104140000D03*
D12*
%TO.P,U5,17,GPIO13*%
%TO.N,Net-(U4-CS)*%
X149860000Y-106680000D03*
D13*
X148960000Y-106680000D03*
D14*
%TO.P,U5,18,GND*%
%TO.N,unconnected-(U5-GND-Pad18)*%
X149860000Y-109220000D03*
D13*
X148960000Y-109220000D03*
D12*
%TO.P,U5,19,GPIO14*%
%TO.N,Net-(U4-SCK)*%
X149860000Y-111760000D03*
D13*
X148960000Y-111760000D03*
D12*
%TO.P,U5,20,GPIO15*%
%TO.N,Net-(U4-MOSI)*%
X149860000Y-114300000D03*
D13*
X148960000Y-114300000D03*
D12*
%TO.P,U5,21,GPIO16*%
%TO.N,Net-(U2-TXD)*%
X167640000Y-114300000D03*
D13*
X168540000Y-114300000D03*
D12*
%TO.P,U5,22,GPIO17*%
%TO.N,Net-(U2-RXD)*%
X167640000Y-111760000D03*
D13*
X168540000Y-111760000D03*
D14*
%TO.P,U5,23,GND*%
%TO.N,Net-(U2-GND)*%
X167640000Y-109220000D03*
D13*
X168540000Y-109220000D03*
D12*
%TO.P,U5,24,GPIO18*%
%TO.N,unconnected-(U5-GPIO18-Pad24)*%
X167640000Y-106680000D03*
D13*
X168540000Y-106680000D03*
D12*
%TO.P,U5,25,GPIO19*%
%TO.N,unconnected-(U5-GPIO19-Pad25)*%
X167640000Y-104140000D03*
D13*
X168540000Y-104140000D03*
D12*
%TO.P,U5,26,GPIO20*%
%TO.N,unconnected-(U5-GPIO20-Pad26)*%
X167640000Y-101600000D03*
D13*
X168540000Y-101600000D03*
D12*
%TO.P,U5,27,GPIO21*%
%TO.N,unconnected-(U5-GPIO21-Pad27)*%
X167640000Y-99060000D03*
D13*
X168540000Y-99060000D03*
D14*
%TO.P,U5,28,GND*%
%TO.N,unconnected-(U5-GND-Pad28)*%
X167640000Y-96520000D03*
D13*
X168540000Y-96520000D03*
D12*
%TO.P,U5,29,GPIO22*%
%TO.N,unconnected-(U5-GPIO22-Pad29)*%
X167640000Y-93980000D03*
D13*
X168540000Y-93980000D03*
D12*
%TO.P,U5,30,RUN*%
%TO.N,unconnected-(U5-RUN-Pad30)*%
X167640000Y-91440000D03*
D13*
X168540000Y-91440000D03*
D12*
%TO.P,U5,31,GPIO26_ADC0*%
%TO.N,unconnected-(U5-GPIO26_ADC0-Pad31)*%
X167640000Y-88900000D03*
D13*
X168540000Y-88900000D03*
D12*
%TO.P,U5,32,GPIO27_ADC1*%
%TO.N,unconnected-(U5-GPIO27_ADC1-Pad32)*%
X167640000Y-86360000D03*
D13*
X168540000Y-86360000D03*
D14*
%TO.P,U5,33,AGND*%
%TO.N,unconnected-(U5-AGND-Pad33)*%
X167640000Y-83820000D03*
D13*
X168540000Y-83820000D03*
D12*
%TO.P,U5,34,GPIO28_ADC2*%
%TO.N,unconnected-(U5-GPIO28_ADC2-Pad34)*%
X167640000Y-81280000D03*
D13*
X168540000Y-81280000D03*
D12*
%TO.P,U5,35,ADC_VREF*%
%TO.N,unconnected-(U5-ADC_VREF-Pad35)*%
X167640000Y-78740000D03*
D13*
X168540000Y-78740000D03*
D12*
%TO.P,U5,36,3V3*%
%TO.N,unconnected-(U5-3V3-Pad36)*%
X167640000Y-76200000D03*
D13*
X168540000Y-76200000D03*
D12*
%TO.P,U5,37,3V3_EN*%
%TO.N,unconnected-(U5-3V3_EN-Pad37)*%
X167640000Y-73660000D03*
D13*
X168540000Y-73660000D03*
D14*
%TO.P,U5,38,GND*%
%TO.N,Net-(J1-Pin_2)*%
X167640000Y-71120000D03*
D13*
X168540000Y-71120000D03*
D12*
%TO.P,U5,39,VSYS*%
%TO.N,Net-(J1-Pin_1)*%
X167640000Y-68580000D03*
D13*
X168540000Y-68580000D03*
D12*
%TO.P,U5,40,VBUS*%
%TO.N,unconnected-(U5-VBUS-Pad40)*%
X167640000Y-66040000D03*
D13*
X168540000Y-66040000D03*
D12*
%TO.P,U5,41,SWCLK*%
%TO.N,unconnected-(U5-SWCLK-Pad41)*%
X156210000Y-114070000D03*
D15*
X156210000Y-114970000D03*
D14*
%TO.P,U5,42,GND*%
%TO.N,unconnected-(U5-GND-Pad42)*%
X158750000Y-114070000D03*
D15*
X158750000Y-114970000D03*
D12*
%TO.P,U5,43,SWDIO*%
%TO.N,unconnected-(U5-SWDIO-Pad43)*%
X161290000Y-114070000D03*
D15*
X161290000Y-114970000D03*
%TD*%
D14*
%TO.P,U3,1,STATE*%
%TO.N,unconnected-(U3-STATE-Pad1)*%
X129540000Y-45720000D03*
D12*
%TO.P,U3,2,RXD*%
%TO.N,Net-(U3-RXD)*%
X132080000Y-45720000D03*
%TO.P,U3,3,TXD*%
%TO.N,Net-(U3-TXD)*%
X134620000Y-45720000D03*
%TO.P,U3,4,GND*%
%TO.N,Net-(U1-GND)*%
X137160000Y-45720000D03*
%TO.P,U3,5,VCC*%
%TO.N,Net-(J1-Pin_1)*%
X139700000Y-45720000D03*
%TO.P,U3,6,EN*%
%TO.N,unconnected-(U3-EN-Pad6)*%
X142240000Y-45720000D03*
%TD*%
D14*
%TO.P,U4,1,CS*%
%TO.N,Net-(U4-CS)*%
X119380000Y-114300000D03*
D12*
%TO.P,U4,2,SCK*%
%TO.N,Net-(U4-SCK)*%
X119380000Y-111760000D03*
%TO.P,U4,3,MOSI*%
%TO.N,Net-(U4-MOSI)*%
X119380000Y-109220000D03*
%TO.P,U4,4,MISO*%
%TO.N,Net-(U4-MISO)*%
X119380000Y-106680000D03*
%TO.P,U4,5,VCC*%
%TO.N,Net-(J1-Pin_1)*%
X119380000Y-104140000D03*
%TO.P,U4,6,GND*%
%TO.N,Net-(U4-GND)*%
X119380000Y-101600000D03*
%TD*%
D14*
%TO.P,U2,1,VCC*%
%TO.N,Net-(J1-Pin_1)*%
X160020000Y-45720000D03*
D12*
%TO.P,U2,2,GND*%
%TO.N,Net-(U2-GND)*%
X162560000Y-45720000D03*
%TO.P,U2,3,RXD*%
%TO.N,Net-(U2-RXD)*%
X165100000Y-45720000D03*
%TO.P,U2,4,TXD*%
%TO.N,Net-(U2-TXD)*%
X167640000Y-45720000D03*
%TO.P,U2,5,PPS*%
%TO.N,unconnected-(U2-PPS-Pad5)*%
X170180000Y-45720000D03*
%TD*%
D16*
%TO.P,U1,1,RST*%
%TO.N,Net-(U1-RST)*%
X119380000Y-66040000D03*
D17*
%TO.P,U1,2,SDA*%
%TO.N,Net-(U1-SDA)*%
X111760000Y-66040000D03*
%TO.P,U1,3,SCL*%
%TO.N,Net-(U1-SCL)*%
X119380000Y-68580000D03*
%TO.P,U1,4,GND*%
%TO.N,Net-(U1-GND)*%
X111760000Y-68580000D03*
%TO.P,U1,5,3V*%
%TO.N,unconnected-(U1-3V-Pad5)*%
X119380000Y-71120000D03*
%TO.P,U1,6,VIN*%
%TO.N,Net-(J1-Pin_1)*%
X111760000Y-71120000D03*
%TO.P,U1,7,INT*%
%TO.N,unconnected-(U1-INT-Pad7)*%
X119380000Y-73660000D03*
%TO.P,U1,8,ADR*%
%TO.N,unconnected-(U1-ADR-Pad8)*%
X111760000Y-73660000D03*
%TO.P,U1,9,PS0*%
%TO.N,unconnected-(U1-PS0-Pad9)*%
X119380000Y-76200000D03*
%TO.P,U1,10,PS1*%
%TO.N,unconnected-(U1-PS1-Pad10)*%
X111760000Y-76200000D03*
%TD*%
D18*
%TO.N,Net-(U1-GND)*%
X142876396Y-55880000D02*
X157480000Y-55880000D01*
X137796396Y-50800000D02*
X142876396Y-55880000D01*
X157480000Y-83820000D02*
X149860000Y-83820000D01*
X157480000Y-55880000D02*
X157480000Y-83820000D01*
X137160000Y-50800000D02*
X137796396Y-50800000D01*
%TO.N,Net-(U1-SCL)*%
X144780000Y-63500000D02*
X144780000Y-68580000D01*
X115765000Y-66485280D02*
X115765000Y-64965000D01*
X144780000Y-68580000D02*
X149860000Y-68580000D01*
X116784720Y-67505000D02*
X115765000Y-66485280D01*
X117285280Y-67505000D02*
X116784720Y-67505000D01*
X114300000Y-63500000D02*
X144780000Y-63500000D01*
X115765000Y-64965000D02*
X114300000Y-63500000D01*
X117915000Y-68134720D02*
X117285280Y-67505000D01*
X117915000Y-68580000D02*
X117915000Y-68134720D01*
X119380000Y-68580000D02*
X117915000Y-68580000D01*
%TO.N,Net-(U1-RST)*%
X137160000Y-66040000D02*
X144780000Y-73660000D01*
X119380000Y-66040000D02*
X137160000Y-66040000D01*
X144780000Y-73660000D02*
X149860000Y-73660000D01*
%TO.N,Net-(U2-GND)*%
X165100000Y-48260000D02*
X165100000Y-109220000D01*
X165100000Y-109220000D02*
X167640000Y-109220000D01*
X162560000Y-45720000D02*
X165100000Y-48260000D01*
%TO.N,Net-(U1-SDA)*%
X147320000Y-60960000D02*
X149860000Y-63500000D01*
X114300000Y-60960000D02*
X147320000Y-60960000D01*
X111760000Y-63500000D02*
X114300000Y-60960000D01*
X149860000Y-63500000D02*
X149860000Y-66040000D01*
X111760000Y-66040000D02*
X111760000Y-63500000D01*
%TO.N,Net-(U1-GND)*%
X137160000Y-50800000D02*
X137160000Y-45720000D01*
X119380000Y-50800000D02*
X137160000Y-50800000D01*
X109220000Y-60960000D02*
X119380000Y-50800000D01*
X109220000Y-68580000D02*
X109220000Y-60960000D01*
X111760000Y-68580000D02*
X109220000Y-68580000D01*
%TO.N,Net-(U4-MISO)*%
X132080000Y-104140000D02*
X149860000Y-104140000D01*
X129540000Y-106680000D02*
X132080000Y-104140000D01*
X119380000Y-106680000D02*
X129540000Y-106680000D01*
%TO.N,Net-(U4-GND)*%
X134620000Y-96520000D02*
X149860000Y-96520000D01*
X129540000Y-101600000D02*
X134620000Y-96520000D01*
X119380000Y-101600000D02*
X129540000Y-101600000D01*
%TO.N,Net-(J1-Pin_2)*%
X175260000Y-73660000D02*
X172720000Y-71120000D01*
X200660000Y-73660000D02*
X175260000Y-73660000D01*
X172720000Y-71120000D02*
X167640000Y-71120000D01*
%TO.N,Net-(J1-Pin_1)*%
X187960000Y-40640000D02*
X154940000Y-40640000D01*
X187960000Y-63500000D02*
X187960000Y-40640000D01*
X193040000Y-68580000D02*
X187960000Y-63500000D01*
X193040000Y-68580000D02*
X167640000Y-68580000D01*
X200660000Y-68580000D02*
X193040000Y-68580000D01*
X124460000Y-40640000D02*
X111760000Y-53340000D01*
X142240000Y-40640000D02*
X124460000Y-40640000D01*
%TO.N,Net-(U4-CS)*%
X127000000Y-114300000D02*
X134620000Y-106680000D01*
X119380000Y-114300000D02*
X127000000Y-114300000D01*
X134620000Y-106680000D02*
X149860000Y-106680000D01*
%TO.N,Net-(J1-Pin_1)*%
X109220000Y-104140000D02*
X119380000Y-104140000D01*
X106680000Y-101600000D02*
X109220000Y-104140000D01*
X106680000Y-71120000D02*
X106680000Y-101600000D01*
X106680000Y-71120000D02*
X111760000Y-71120000D01*
X106680000Y-58420000D02*
X106680000Y-71120000D01*
X111760000Y-53340000D02*
X106680000Y-58420000D01*
X139700000Y-43180000D02*
X139700000Y-45720000D01*
X142240000Y-40640000D02*
X139700000Y-43180000D01*
X154940000Y-40640000D02*
X142240000Y-40640000D01*
X160020000Y-45720000D02*
X154940000Y-40640000D01*
%TD*%
M02*
